<svg width="792" height="533" viewBox="0 0 792 533" fill="none" xmlns="http://www.w3.org/2000/svg">
<g filter="url(#filter0_d_333_3261)">
<path d="M396.42 504.24C451.018 504.24 495.279 495.287 495.279 484.243C495.279 473.199 451.018 464.247 396.42 464.247C341.822 464.247 297.561 473.199 297.561 484.243C297.561 495.287 341.822 504.24 396.42 504.24Z" fill="#19767B"/>
<path d="M661.787 315.571H211.992C206.897 306.837 204.258 296.41 203.743 286.156C203.502 281.456 203.714 276.743 204.378 272.084C207.793 248.446 224.692 228.277 249.234 232.175C247.734 211.593 243.964 193.858 257.066 175.362C261.753 168.755 267.698 163.138 274.56 158.833C291.23 148.327 312.472 145.757 331.795 151.367C335.647 152.486 339.509 153.92 343.393 155.397C353.369 159.195 363.499 163.293 374.046 163.144C398.024 162.805 411.94 138.25 433.773 132.115C444.905 128.988 452.957 131.955 461.52 138.806C461.52 138.806 461.52 138.806 461.529 138.814C474.201 148.953 485.092 136.806 494.579 128.782C505.122 119.856 515.797 114.708 528.924 122.206C547.525 132.828 557.007 152.725 568.267 169.982C573.636 178.211 579.839 185.752 585.866 193.393C593.5 203.069 600.853 212.903 605.879 224.477C609.598 233.041 612.654 241.878 615.018 250.911C618.518 264.294 620.467 278.124 620.47 291.757C638.93 291.757 663.19 292.979 661.787 315.571Z" fill="#A0D5FD"/>
<path d="M416.064 228.254C416.064 228.254 394.438 243.375 377.02 225.955C347.893 232.849 320.94 211.236 324.695 185.273C297.725 185.273 282.693 171.534 274.559 158.833C291.228 148.327 312.47 145.756 331.794 151.367C335.646 152.485 339.508 153.919 343.39 155.396C344.269 163.316 347.588 173.188 358.327 175.815C353.979 186.903 362.673 200.367 384.166 204.715C384.165 222.973 416.064 228.254 416.064 228.254Z" fill="#D2EBFD"/>
<path d="M369.848 230.352C369.471 230.374 369.002 230.372 368.467 230.388C367.933 230.403 367.322 230.401 366.654 230.413C365.315 230.413 363.737 230.397 362.001 230.323C360.265 230.249 358.368 230.125 356.384 229.952C354.4 229.779 352.513 229.57 350.786 229.35C349.059 229.13 347.501 228.879 346.183 228.648C343.551 228.184 341.898 227.763 341.898 227.763C341.898 227.763 342.228 228.027 342.877 228.455C343.793 229.045 344.747 229.574 345.732 230.039C349.002 231.592 352.523 232.55 356.129 232.87C358.115 233.042 360.112 233.016 362.092 232.793C363.704 232.608 365.298 232.296 366.861 231.861C367.521 231.663 368.12 231.49 368.635 231.296C369.15 231.102 369.592 230.952 369.946 230.795C370.655 230.494 371.039 230.315 371.039 230.315C371.039 230.315 370.61 230.323 369.848 230.352Z" fill="#D2EBFD"/>
<path d="M415.1 318.025C378.253 316.737 346.772 315.982 320.306 315.571C274.573 314.862 243.812 315.184 226.198 315.571H211.992C206.897 306.837 204.258 296.41 203.743 286.156C220.49 282.328 258.17 277.244 278.878 302.203C311.128 286.957 321.046 282.432 331.367 299.975C357.309 284.997 404.488 303.428 413.728 315.571C414.384 316.425 414.846 317.247 415.1 318.025Z" fill="#98B03F"/>
<path d="M615.017 250.911C602.864 255.531 591.805 264.411 585.142 280.405C562.646 280.405 569.098 301.669 574.714 307.281C556.129 293.074 541.096 297.645 541.096 305.463C533.63 302.467 520.745 309.25 510.856 315.57C503.517 320.262 497.826 324.699 497.226 324.699C495.812 324.699 416.675 320.859 416.675 320.859C416.675 320.859 420.308 318.42 426.971 315.57C438.059 310.832 457.544 304.954 482.659 307.281C482.659 307.281 475.267 275.53 520.265 281.369C525.479 247.753 553.518 221.907 582.862 230.918C578.458 217.036 580.742 204.291 585.868 193.392C593.501 203.069 600.855 212.901 605.88 224.477C609.599 233.041 612.654 241.878 615.017 250.911Z" fill="#7FC7FD"/>
<path d="M423.869 340.664C419.675 332.51 415.929 324.133 412.649 315.57H413.053C415.675 322.179 419.289 330.807 423.869 340.664Z" fill="#19767B"/>
<path d="M384.165 315.57C389.461 340.475 402.036 394.209 419.868 436.144L402.972 436.709L266.326 441.276C266.127 441.284 265.93 441.29 265.729 441.296C232.993 442.393 181.761 430.022 167.677 396.622C160.342 379.224 160.589 354.601 171.978 338.925C181.988 325.145 209.202 317.983 223.59 328.836C223.582 328.828 223.57 328.821 223.559 328.812C218.816 325.231 214.979 320.687 211.997 315.564L384.165 315.57Z" fill="#19767B"/>
<path d="M264.528 315.57H262.053L184.041 417.614C184.548 418.025 185.063 418.431 185.585 418.829L231.607 358.629C242.575 344.271 253.548 329.918 264.528 315.57Z" fill="#588258"/>
<path d="M165.168 389.356L193.627 365.17L237.514 327.872C242.052 323.99 246.638 320.161 251.167 316.271C251.274 316.189 251.359 316.082 251.415 315.96C251.472 315.838 251.498 315.704 251.492 315.57H248.943L238.69 324.282C214.003 345.267 189.312 366.25 164.617 387.231C164.791 387.947 164.974 388.655 165.168 389.356Z" fill="#588258"/>
<path d="M317.086 315.57H314.992C300.238 357.426 285.482 399.281 270.723 441.135L272.843 441.063C287.592 399.229 302.339 357.398 317.086 315.57Z" fill="#588258"/>
<path d="M275.132 346.621C280.653 336.267 286.18 325.917 291.715 315.57H289.471L224.811 436.656C225.472 436.824 226.132 436.987 226.791 437.144L275.132 346.621Z" fill="#588258"/>
<path d="M661.787 315.57C661.735 316.396 661.65 317.251 661.53 318.136C658.957 336.842 644.688 353.166 644.106 372.229C593.168 357.674 536.67 328.499 512.89 315.57H661.787Z" fill="#19767B"/>
<path d="M650.409 348.803C648.812 348.447 647.218 348.064 645.63 347.667C641.198 346.557 636.797 345.32 632.416 344.025C627.455 342.558 622.516 341.011 617.6 339.418C612.381 337.729 607.178 335.991 601.99 334.204C596.778 332.417 591.577 330.596 586.388 328.741C581.448 326.981 576.518 325.195 571.597 323.383C567.197 321.767 562.805 320.136 558.422 318.488C555.848 317.52 553.276 316.547 550.707 315.57H545.177C548.44 316.821 551.707 318.064 554.977 319.299C559.188 320.888 563.404 322.463 567.626 324.023C572.441 325.802 577.262 327.562 582.091 329.303C587.241 331.151 592.4 332.975 597.568 334.774C602.782 336.583 608.01 338.352 613.251 340.083C618.267 341.733 623.296 343.33 628.338 344.874C632.899 346.258 637.477 347.588 642.085 348.803C644.585 349.463 647.101 350.092 649.619 350.651C649.878 350.034 650.141 349.418 650.409 348.803Z" fill="#588258"/>
<path d="M651.024 334.752C643.026 333.045 635.122 330.9 627.277 328.594C619.401 326.28 611.581 323.778 603.8 321.161C598.432 319.355 593.081 317.492 587.749 315.574H581.952L583.342 316.082C589.16 318.205 595 320.262 600.863 322.254C608.535 324.863 616.245 327.36 624.006 329.688C631.926 332.064 639.9 334.282 647.966 336.105C650.419 336.659 652.893 337.194 655.383 337.663C655.653 337.047 655.92 336.425 656.184 335.799C654.463 335.47 652.74 335.115 651.024 334.752Z" fill="#588258"/>
<path d="M642.865 319.134C638.623 318.054 634.408 316.866 630.221 315.57H623.765C625.497 316.151 627.236 316.706 628.977 317.251C637.619 319.957 646.401 322.24 655.303 323.941C656.91 324.248 658.521 324.535 660.135 324.801C660.311 324.167 660.474 323.53 660.626 322.89C654.653 321.912 648.727 320.628 642.865 319.134Z" fill="#588258"/>
<path d="M627.824 430.188C615.607 432.3 602.105 430.119 590.123 430.452C568.957 431.042 547.795 431.867 526.631 432.576L493.895 433.67C470.135 409.946 442.963 377.905 423.873 340.667C419.293 330.809 415.679 322.187 413.049 315.572H437.907C458.733 340.59 523.152 408.069 627.824 430.188Z" fill="#BCD845"/>
<path d="M656.18 408.358C654.269 414.897 648.62 420.716 642.695 424.54C640.902 425.706 639.011 426.716 637.044 427.556C634.091 428.799 631.001 429.636 627.824 430.184C523.148 408.069 458.732 340.59 437.907 315.57H470.696C518.364 353.978 620.577 394.784 656.18 408.358Z" fill="#93C74B"/>
<path d="M656.18 408.358C620.577 394.784 518.36 353.974 470.696 315.57H512.894C536.674 328.506 593.172 357.678 644.11 372.229C644.076 373.384 644.09 374.549 644.163 375.725C644.712 384.846 653.067 390.473 655.911 398.429C656.39 399.74 656.692 401.11 656.808 402.502C656.96 404.476 656.747 406.461 656.18 408.358Z" fill="#BCD845"/>
<path d="M493.891 433.668L483.484 434.017L419.868 436.144C402.036 394.209 389.461 340.475 384.165 315.57H412.645C415.925 324.133 419.671 332.51 423.865 340.664C442.959 377.903 470.136 409.943 493.891 433.668Z" fill="#93C74B"/>
<path d="M606.118 198.63H595.684V430.663H606.118V198.63Z" fill="#786765"/>
<path d="M609.728 198.63H599.294V430.663H609.728V198.63Z" fill="#A8908E"/>
<path d="M497.219 198.63H486.786V433.668H497.219V198.63Z" fill="#786765"/>
<path d="M500.762 198.63H490.329V433.668H500.762V198.63Z" fill="#A8908E"/>
<path d="M539.44 179.049C539.44 179.202 539.43 179.356 539.421 179.51C539.455 179.369 539.491 179.229 539.53 179.089L539.44 179.049Z" fill="#69A31A"/>
<path d="M626.949 285.384C623.385 282.099 623.649 276.317 625.313 272.052C620.258 268.051 611.544 269.064 614.802 277.154C616.589 281.802 624.445 289.865 629.666 286.301C628.677 286.353 627.704 286.025 626.949 285.384Z" fill="#69A31A"/>
<path d="M634.613 280.316C635.053 279.28 635.849 278.115 636.75 277.176C637.796 273.013 637.365 264.78 631.369 265.738C628.414 266.542 626.45 269.302 625.313 272.043C623.94 275.475 623.655 279.506 625.11 282.867C627.013 287.41 631.522 287.191 634.086 283.358C633.963 282.451 634.14 281.407 634.613 280.316Z" fill="#69A31A"/>
<path d="M645.937 272.766C642.637 272.819 639.04 274.746 636.749 277.176C635.165 278.845 633.805 281.194 634.092 283.356C635.736 289.508 645.005 284.877 647.82 281.701C651.288 278.463 652.117 272.725 645.937 272.766Z" fill="#69A31A"/>
<path d="M629.162 233.508C630.11 229.668 632.243 226.107 635.102 223.307C635.398 219.413 636.818 209.563 630.249 213.618C625.792 216.889 624.107 222.869 624.112 228.215C626.06 229.706 627.764 231.492 629.162 233.508Z" fill="#69A31A"/>
<path d="M633.91 224.561C631.637 227.18 629.979 230.199 629.158 233.505C630.038 234.761 630.765 236.117 631.323 237.545C633.815 233.784 638.331 231.326 642.807 230.556C644.435 228.751 646.173 227.02 647.823 225.306C649.227 223.77 650.727 222.372 651.255 220.554C651.66 216.848 646.255 217.459 643.892 218.114C640.031 219.178 636.579 221.544 633.91 224.561Z" fill="#69A31A"/>
<path d="M630.741 242.698C629.533 241.266 630.363 239.01 631.327 237.55C626.014 223.302 603.746 219.096 615.123 233.542C618.436 233.278 621.977 233.871 624.734 235.712C627.776 237.605 629.046 241.49 624.905 242.888C626.791 244.187 630.379 246.235 631.781 243.433C631.381 243.273 631.025 243.021 630.741 242.698Z" fill="#69A31A"/>
<path d="M652.747 234.073C651.669 229.036 642.746 230.028 639.079 231.587C635.292 232.932 628.104 238.33 630.741 242.699C633.622 245.311 639.661 242.594 642.956 241.481C646.125 240.063 652.419 237.937 652.747 234.073Z" fill="#69A31A"/>
<path d="M626.026 242.332C630.217 239.515 624.963 235.031 621.713 234.256C617.823 232.972 612.858 233.293 609.254 235.088C602.628 238.511 607.263 242.961 612.686 243.729C617.138 244.39 622.051 244.373 626.026 242.332Z" fill="#69A31A"/>
<path d="M539.776 275.872C534.551 272.003 523.672 272.022 530.24 280.665C532.72 283.812 542.689 293.583 546.703 290.206C543.803 290.448 540.71 284.064 539.776 275.872Z" fill="#69A31A"/>
<path d="M548.489 287.767C545.776 284.489 548.053 279.55 550.516 276.73C549.42 257.492 537.777 253.246 539.774 275.867C540.818 284.736 544.988 294.509 549.038 288.165C548.837 288.059 548.652 287.925 548.489 287.767Z" fill="#69A31A"/>
<path d="M565.425 272.616C564.027 269.071 559.008 271.177 556.458 272.286C552.718 274.097 549.162 277.275 547.803 281.325C547.122 283.405 546.898 286.106 548.489 287.767C550.693 289.995 555.694 285.523 557.799 284.168C561.252 281.382 566.172 277.587 565.425 272.616Z" fill="#69A31A"/>
<path d="M528.396 238.392C528.256 237.316 528.515 236.213 529.02 235.165C524.928 237.717 521.455 227.383 521.3 224.367C516.409 222.405 511.532 225.014 514.832 230.428C516.813 233.896 524.212 241.708 528.396 238.392Z" fill="#69A31A"/>
<path d="M521.902 227.399C522.562 229.848 523.651 232.403 525.347 234.242C526.757 235.79 528.779 236.313 529.587 234.179C528.828 230.814 529.704 227.522 531.342 224.411C531.6 220.476 531.959 215.963 532.213 212.065C532.19 209.353 533.178 204.304 530.718 202.611C527.665 201.754 525.129 205.969 523.826 208.34C520.946 213.963 520.267 221.232 521.902 227.399Z" fill="#69A31A"/>
<path d="M529.328 231.183C529.263 232.189 529.352 233.2 529.592 234.179C532.295 230.483 536.898 228.291 541.42 228.081C550.062 209.974 529.914 217.404 529.328 231.183Z" fill="#69A31A"/>
<path d="M535.7 229.436C532.027 230.929 526.046 235.904 529.24 240.128C530.711 241.243 532.763 240.392 534.434 240.524C536.325 240.542 538.249 239.938 540.024 239.138C542.796 237.859 548.226 234.65 547.824 231.35C546.01 226.827 539.352 227.787 535.7 229.436Z" fill="#69A31A"/>
<path d="M455.341 231.692C457.488 234.107 460.815 235.967 464.105 235.635C463.181 234.546 462.908 233.092 462.863 231.653C461.134 229.086 460.223 226.228 459.668 223.105C458.386 222.795 457.309 223.36 456.135 223.691C450.83 224.49 452.654 229.06 455.341 231.692Z" fill="#69A31A"/>
<path d="M461.583 229.405C461.947 230.188 462.375 230.938 462.863 231.649C462.803 226.633 465.712 221.309 469.738 218.365C465.445 194.7 454.525 214.691 461.583 229.405Z" fill="#69A31A"/>
<path d="M465.146 223.557C463.166 226.92 461.019 234.249 465.284 236.441C465.887 231.442 471.207 228.298 475.571 226.564C481.91 213.378 470.435 214.256 465.146 223.557Z" fill="#69A31A"/>
<path d="M471.863 228.316C468.616 230.296 464.484 233.647 465.495 237.748C467.126 240.969 473.547 238.565 476.319 237.721C479.316 236.636 482.418 235.054 484.722 232.82C488.9 228.821 488.756 223.883 481.966 224.927C478.658 225.324 474.887 226.574 471.863 228.316Z" fill="#69A31A"/>
<path d="M474.859 276.92C476.644 274.743 479.572 273.154 482.337 273.324C484.395 269.364 486.936 265.849 488.18 261.615C489.224 256.335 482.372 258.659 480.005 260.507C476.22 263.084 473.249 266.99 471.512 271.397C473.017 272.972 474.159 274.857 474.859 276.92Z" fill="#69A31A"/>
<path d="M473.858 284.798C473.718 284.906 473.569 285.001 473.411 285.08C473.314 285.54 473.099 285.966 472.788 286.319C473.663 286.509 474.428 286.102 475.211 285.354C474.72 285.287 474.254 285.096 473.858 284.798Z" fill="#69A31A"/>
<path d="M483.028 279.84C483.978 279.816 484.926 279.935 485.841 280.192C489.055 271.834 478.8 271.649 474.859 276.923C475.667 279.47 476.029 282.888 473.858 284.801C474.445 285.256 475.197 285.418 475.922 285.401C475.79 282.405 479.002 279.931 483.028 279.84Z" fill="#69A31A"/>
<path d="M468.673 278.709C471.014 279.96 473.821 282.171 473.411 285.08C475.391 283.981 475.646 281.318 475.391 279.246C474.929 275.534 472.575 271.843 469.502 269.642C467.229 268.027 463.181 266.425 461.171 269.069C459.768 271.665 461.553 274.745 462.821 277.088C464.858 277.243 466.846 277.794 468.673 278.709Z" fill="#69A31A"/>
<path d="M473.411 285.08C473.699 279.105 464.455 276.35 459.569 277.174C456.819 277.57 452.796 279.077 453.007 282.36C453.692 287.644 472.012 290.857 473.411 285.08Z" fill="#69A31A"/>
<path d="M485.841 280.19C481.764 278.789 475.554 281.432 475.922 285.399C476.214 292.252 490.521 291.878 490.371 284.989C490.323 282.788 488.457 280.938 485.841 280.19Z" fill="#69A31A"/>
<path d="M472.064 186.09C471.129 185.79 470.324 185.224 469.952 184.217C466.355 182.369 466.223 177.298 466.764 173.723C461.575 169.209 455.623 170.734 458.548 178.331C459.908 181.87 462.253 185.378 465.128 187.861C467.945 190.484 472.015 190.851 472.495 186.164C472.349 186.161 472.203 186.136 472.064 186.09Z" fill="#69A31A"/>
<path d="M466.551 177.603C466.768 180.061 467.518 183.166 469.957 184.217C468.749 180.201 474.407 177.202 477.217 175.307C478.199 171.927 480.781 165.572 478.086 162.711C475.158 160.779 471.617 164.058 469.875 166.364C469.743 167.816 469.046 169.207 467.83 170.016C466.835 172.416 466.398 175.01 466.551 177.603Z" fill="#69A31A"/>
<path d="M469.128 168.672C472.123 164.06 466.289 156.246 461.223 159.752C458.354 161.943 458.287 166.556 460.854 168.967C463.002 171.196 467.358 171.638 469.128 168.672Z" fill="#69A31A"/>
<path d="M544.481 172.56C544.591 174.54 543.522 174.781 544.145 176.535C543.437 178.398 541.69 180.082 539.525 179.088C538.844 181.677 538.733 186.855 542.264 186.975C543.901 186.662 544.999 185.051 546.27 183.966C548.147 182.194 549.834 180.712 551.982 179.001C554.55 176.968 557.332 174.822 559.242 172.146C562.703 167.273 560.399 164.483 554.838 166.059C551.132 167.006 547.491 168.791 544.52 171.401C544.52 171.795 544.492 172.185 544.481 172.56Z" fill="#69A31A"/>
<path d="M520.909 177.591C523.363 181.598 530.637 185.919 535.297 183.905C533.063 182.626 531.759 180.824 529.926 178.873C528.017 176.664 526.029 174.245 524.597 171.632C521.417 171.856 518.99 174.606 520.909 177.591Z" fill="#69A31A"/>
<path d="M537.24 171.51C538.56 173.816 539.455 176.386 539.44 179.049C541.599 180.105 543.35 178.481 544.128 176.62C544.177 176.216 543.841 175.844 543.931 175.322C544.566 173.72 544.532 171.939 544.542 170.19C544.537 166.663 544.347 163.138 543.972 159.63C543.54 156.436 542.731 147.736 538.052 151.086C534.155 154.841 533.371 161.56 533.915 167.045C535.185 168.406 536.3 169.904 537.24 171.51Z" fill="#69A31A"/>
<path d="M527.159 175.506C529.242 177.945 533.259 183.6 536.191 184.147C539.995 183.751 539.745 178.299 538.94 175.499C538.07 172.35 536.106 169.415 533.915 167.051C531.554 164.688 524.474 157.291 522.737 163.545C522.01 167.93 524.63 172.128 527.159 175.506Z" fill="#69A31A"/>
<path d="M626.156 174.041C626.288 174.689 626.398 175.307 626.473 175.898C627.628 174.063 629.641 172.202 631.658 171.183C632.494 164.776 628.094 161.864 623.775 166.816C624.84 169.295 625.617 171.571 626.156 174.041Z" fill="#69A31A"/>
<path d="M625.064 182.079C625.02 181.932 624.986 181.777 624.955 181.617C624.34 181.881 623.585 181.847 622.747 181.533C623.157 183.104 622.442 184.556 621.057 185.703C623.069 186.148 626.281 186.417 627.21 184.259C626.154 183.958 625.388 183.192 625.064 182.079Z" fill="#69A31A"/>
<path d="M618.083 177.756C615.792 174.984 613.953 171.42 612.848 167.879C602.591 161.139 604.968 173.452 609.613 178.271C611.99 177.209 615.553 176.996 618.083 177.756Z" fill="#69A31A"/>
<path d="M626.472 175.898C626.818 178.579 626.506 180.948 624.954 181.617C625.234 183.79 627.413 184.767 629.379 184.341C628.629 180.134 634.425 179.003 637.998 179.153C647.703 168.168 632.053 166.773 626.472 175.898Z" fill="#69A31A"/>
<path d="M616.746 175.984C617.187 176.62 617.631 177.211 618.083 177.756C620.508 178.438 622.292 179.825 622.747 181.533C628.059 183.286 626.648 175.031 625.569 171.74C624.397 167.78 622.412 163.379 620.067 159.992C613.665 150.793 610.235 157.439 612.216 165.536C612.999 169.113 614.715 173.04 616.746 175.984Z" fill="#69A31A"/>
<path d="M614.493 187.926C625.894 187.225 625.333 177.025 614.049 177.309C603.53 177.688 602.336 187.98 614.493 187.926Z" fill="#69A31A"/>
<path d="M632.799 179.838C628.669 181.111 628.179 184.867 631.561 187.249C635.563 190.516 647.349 191.861 648.94 185.574C648.772 181.584 643.723 179.898 639.779 179.298C637.478 178.98 634.697 179.148 632.799 179.838Z" fill="#69A31A"/>
<path d="M480.287 173.72C476.835 175.408 466.402 180.87 470.843 185.455C472.215 186.587 472.887 185.971 474.386 185.798C476.113 186.259 477.824 185.737 479.578 185.28C496.258 181.05 504.27 164.406 480.287 173.72Z" fill="#69A31A"/>
<path d="M460.601 225.814C461.461 228.039 463.125 230.302 464.825 231.63C462.206 225.208 461.692 216.957 463.493 210.26C459.708 214.037 458.436 220.816 460.601 225.814Z" fill="#C4DD5D"/>
<path d="M468.015 224.613C469.168 222.336 470.494 220.086 471.998 218.129C466.233 219.175 462.572 226.375 465.118 231.651C465.817 229.284 466.851 226.888 468.015 224.613Z" fill="#C4DD5D"/>
<path d="M464.318 232.238C461.036 231.632 458.847 228.542 456.826 226.259C455.939 232.024 461.04 236.297 466.235 232.786C465.792 232.642 465.012 232.441 464.318 232.238Z" fill="#C4DD5D"/>
<path d="M481.506 223.978C478.441 223.868 475.816 226.685 473.718 228.698C471.591 230.69 468.79 232.526 466.77 234.326C470.328 234.102 474.791 232.544 477.048 229.386C478.5 227.53 479.747 225.187 481.702 223.989L481.506 223.978Z" fill="#C4DD5D"/>
<path d="M530.112 237.236C530.133 237.279 529.86 236.663 529.61 236.136C529.394 236.155 529.177 236.141 528.965 236.097C529.136 236.014 529.299 235.915 529.452 235.801C526.062 228.772 521.717 220.357 523.929 212.244C517.461 220.451 523.1 231.66 530.112 237.236Z" fill="#C4DD5D"/>
<path d="M525.547 235.939C521.983 233.248 518.551 229.134 515.027 226.486C516.137 232.069 521.434 238.315 527.665 237.339C526.935 236.91 526.228 236.443 525.547 235.939Z" fill="#C4DD5D"/>
<path d="M529.137 236.005L528.962 236.097C531.12 236.45 532.539 234.117 533.61 232.533C534.27 231.522 534.867 230.473 535.399 229.39C536.766 226.555 537.694 223.528 538.148 220.414C537.85 220.263 532.169 227.761 531.384 231.447C530.761 233.006 530.664 235.092 529.137 236.005Z" fill="#C4DD5D"/>
<path d="M546.084 234.156C540.64 234.169 532.905 236.218 528.207 238.924C533.952 239.793 542.255 237.669 546.876 234.147C546.876 234.147 546.591 234.14 546.084 234.156Z" fill="#C4DD5D"/>
<path d="M630.3 241.614L630.214 241.573L630.184 241.623C630.184 241.623 630.184 241.601 630.184 241.56C630.117 241.528 629.903 241.42 629.911 241.428C629.892 241.428 630.122 241.386 630.192 241.374C630.201 241.181 630.23 240.73 630.256 240.412C629.897 240.173 629.49 239.884 629.116 239.612C629.16 240.198 629.307 241.369 629.34 241.795C630.083 241.954 630.84 242.034 631.599 242.037C631.151 241.946 630.715 241.805 630.3 241.614Z" fill="#C4DD5D"/>
<path d="M630.346 241.342C630.686 241.279 631.022 241.198 631.353 241.099C631.151 240.979 630.935 240.847 630.707 240.703C630.572 240.946 630.432 241.194 630.346 241.342Z" fill="#C4DD5D"/>
<path d="M628.552 240.68C627.475 238.784 627.411 238.04 625.508 236.609C623.209 234.53 620.964 232.148 618.937 230.089C619.656 235.294 623.878 240.771 629.318 241.787C629.233 241.68 628.757 240.995 628.552 240.68Z" fill="#C4DD5D"/>
<path d="M628.716 242.281C624.512 239.997 620.09 238.14 615.516 236.737C618.156 241.464 624.348 244.109 629.59 242.755C629.614 242.768 628.927 242.386 628.716 242.281Z" fill="#C4DD5D"/>
<path d="M629.195 240.455C628.531 233.71 628.687 226.91 629.66 220.202C624.785 226.142 624.644 235.73 629.344 241.821C629.336 241.679 629.244 240.849 629.195 240.455Z" fill="#C4DD5D"/>
<path d="M630.212 241.573L630.185 241.56C630.185 241.599 630.185 241.621 630.185 241.621L630.212 241.573Z" fill="#C4DD5D"/>
<path d="M630.193 241.37L630.346 241.342C633.81 235.042 637.458 225.925 645.729 224.89C641.389 223.306 636.525 225.768 633.881 229.335C631.237 232.903 630.424 237.345 630.193 241.37Z" fill="#C4DD5D"/>
<path d="M646.609 235.781C640.592 234.713 635.521 240.484 629.912 241.424C635.964 244.436 641.87 238.351 646.799 235.815L646.609 235.781Z" fill="#C4DD5D"/>
<path d="M628.547 280.317C628.979 281.619 629.8 283.042 630.683 283.978C631.291 279.685 631.002 275.312 629.833 271.136C628.044 273.648 627.48 277.365 628.547 280.317Z" fill="#C4DD5D"/>
<path d="M630.704 284.39C629.461 283.644 628.878 282.335 627.818 281.016C625.512 277.946 621.538 275.501 618.26 274.652C620.197 277.564 626.931 285.476 631.045 284.568C631.012 284.551 630.791 284.447 630.704 284.39Z" fill="#C4DD5D"/>
<path d="M646.503 275.233C646.497 275.024 646.475 274.816 646.44 274.61C643.714 278.281 637.452 279.559 635.987 284.306C639.999 282.48 646.428 280.731 646.503 275.233Z" fill="#C4DD5D"/>
<path d="M546.44 283.913C546.44 283.913 546.43 283.813 546.407 283.628L546.184 283.607C546.348 283.807 546.44 283.913 546.44 283.913Z" fill="#C4DD5D"/>
<path d="M546.047 282.168C546.104 282.2 546.158 282.233 546.212 282.266C545.311 276.152 543.899 270.125 541.988 264.248C540.453 269.858 541.46 276.481 544.619 281.408C545.093 281.655 545.588 281.908 546.047 282.168Z" fill="#C4DD5D"/>
<path d="M546.876 283.701C546.767 283.995 546.685 284.299 546.632 284.608C546.913 284.391 547.257 284.133 547.594 283.924C547.364 283.822 547.123 283.747 546.876 283.701Z" fill="#C4DD5D"/>
<path d="M555.968 272.46C555.94 272.022 555.907 271.784 555.907 271.784C553.641 275.435 549.759 279.272 547.195 282.991C547.446 283.22 547.654 283.491 547.811 283.792C552.675 281.679 556.136 277.992 555.968 272.46Z" fill="#C4DD5D"/>
<path d="M547.194 282.991C544.924 281.235 542.065 280.307 539.638 278.711C537.773 277.597 536.003 275.872 534.244 274.899C535.521 278.946 538.374 282.524 542.858 283.254C544.574 283.727 546.393 283.265 547.937 284.101C547.785 283.675 547.53 283.294 547.194 282.991Z" fill="#C4DD5D"/>
<path d="M474.627 278.187C475.542 274.398 476.475 270.071 478.804 266.936C472.183 269.163 471.053 277.919 473.117 283.646C473.671 282.122 474.177 280.046 474.627 278.187Z" fill="#C4DD5D"/>
<path d="M472.379 284.798C468.757 280.178 465.622 275.195 463.024 269.931C462.032 276.003 465.725 282.583 471.281 284.904L471.103 284.956C471.759 285.269 472.439 285.531 473.135 285.738C473.168 285.771 472.57 285.018 472.379 284.798Z" fill="#C4DD5D"/>
<path d="M469.455 283.899C466.509 282.227 460.89 282.062 458.078 283.239C461.378 285.437 467.434 286.241 471.278 284.902C470.697 284.522 470.088 284.186 469.455 283.899Z" fill="#C4DD5D"/>
<path d="M484.354 285.239C481.122 284.852 477.693 284.407 474.495 283.858C475.968 287.994 482.304 288.865 484.84 285.282C484.836 285.282 484.657 285.26 484.354 285.239Z" fill="#C4DD5D"/>
<path d="M475.785 283.686C478.269 283.846 481.028 281.875 481.568 279.304C481.842 278.178 481.669 276.796 482.657 276.126C480.781 275.553 479.602 278.069 478.565 279.25C477.258 280.808 475.616 282.335 473.854 283.222C474.458 283.509 475.116 283.667 475.785 283.686Z" fill="#C4DD5D"/>
<path d="M629.64 181.141C634.198 180.129 636.759 176.629 636.361 171.987C631.675 172.569 628.796 176.501 629.64 181.141Z" fill="#C4DD5D"/>
<path d="M642.948 184.87C640.282 180.033 633.163 179.149 629.39 183.138C633.937 185.597 638.171 186.306 643.269 185.476C643.173 185.269 643.065 185.066 642.948 184.87Z" fill="#C4DD5D"/>
<path d="M622.817 181.347C618.065 180.192 613.64 185.688 615.884 190.059C617.435 186.808 620.333 183.483 623.34 181.501C623.169 181.44 622.994 181.388 622.817 181.347Z" fill="#C4DD5D"/>
<path d="M625.266 181.472C623.65 183.84 624.107 187.451 626.224 189.341C627.841 186.973 627.383 183.363 625.266 181.472Z" fill="#C4DD5D"/>
<path d="M617.561 178.518C618.346 178.552 619.421 178.568 620.117 178.518C617.932 175.18 612.877 174.119 609.532 176.294C611.94 177.518 614.814 178.464 617.561 178.518Z" fill="#C4DD5D"/>
<path d="M622.482 176.78C622.777 173.637 620.257 169.5 617.376 168.312C617.082 171.455 619.6 175.59 622.482 176.78Z" fill="#C4DD5D"/>
<path d="M629.904 166.478C630.124 165.565 630.416 164.366 630.564 163.539C626.422 165.797 624.446 171.477 626.291 175.815C627.779 172.95 629.167 169.665 629.904 166.478Z" fill="#C4DD5D"/>
<path d="M541.902 177.001C545.245 170.632 553.355 167.038 556.587 160.624C550.594 164.253 541.743 168.742 541.902 177.001Z" fill="#C4DD5D"/>
<path d="M557.568 176.122C552.58 173.257 545.61 174.166 541.544 178.234C543.179 178.475 544.875 177.878 546.57 177.797C550.337 177.388 554.457 176.839 558.186 176.485C558.183 176.492 557.964 176.352 557.568 176.122Z" fill="#C4DD5D"/>
<path d="M541.542 178.241C541.126 178.172 540.705 178.144 540.284 178.155C542.197 181.171 544.534 183.896 547.223 186.247C547.972 182.654 545.192 178.744 541.542 178.241Z" fill="#C4DD5D"/>
<path d="M537.596 177.238C533.968 175.597 528.28 178.274 529.618 182.749C531.542 179.697 536.305 179.458 539.339 178.048C538.786 177.722 538.202 177.451 537.596 177.238Z" fill="#C4DD5D"/>
<path d="M531.205 170.634C533.503 172.924 536.136 175.122 538.674 177.115C539.307 172.882 534.769 168.931 530.662 170.133C530.64 170.123 531.064 170.515 531.205 170.634Z" fill="#C4DD5D"/>
<path d="M538.753 164.076C538.608 163.898 538.511 163.803 538.511 163.803C537.667 164.788 537.166 166.022 537.086 167.318C537.005 168.613 537.349 169.9 538.065 170.982C540.194 169.435 540.581 166.024 538.753 164.076Z" fill="#C4DD5D"/>
<path d="M493.09 171.683C486.425 169.616 478.365 173.436 475.798 179.908C481.265 176.123 487.406 173.42 493.89 171.945C493.89 171.945 493.61 171.842 493.09 171.683Z" fill="#C4DD5D"/>
<path d="M471.423 182.937C471.055 178.46 467.515 174.253 463.175 173.169C465.676 177.365 468.426 181.406 471.412 185.271C471.502 184.496 471.506 183.713 471.423 182.937Z" fill="#C4DD5D"/>
<path d="M466.24 170.133C466.819 170.313 467.414 170.439 468.017 170.511C466.587 167.383 463.294 164.777 461.739 161.746C459.8 165.015 462.844 169.378 466.24 170.133Z" fill="#C4DD5D"/>
<path d="M663.066 287.204H412.339C412.334 291.152 413.891 294.942 416.671 297.746H658.735C661.514 294.942 663.071 291.152 663.066 287.204Z" fill="#E8E3E3"/>
<path d="M416.671 297.746C418.064 299.159 419.725 300.282 421.556 301.047C423.387 301.812 425.352 302.205 427.337 302.202H648.069C650.053 302.204 652.019 301.812 653.85 301.046C655.682 300.281 657.342 299.159 658.735 297.746H416.671Z" fill="#A8908E"/>
<path d="M663.066 236.999H412.339C412.337 239.005 412.738 240.991 413.519 242.838C414.3 244.686 415.445 246.357 416.885 247.753H658.522C659.961 246.357 661.106 244.686 661.886 242.838C662.667 240.991 663.068 239.005 663.066 236.999Z" fill="#E8E3E3"/>
<path d="M416.885 247.753C419.681 250.479 423.432 252.002 427.337 251.997H648.068C651.973 252.002 655.725 250.479 658.522 247.753H416.885Z" fill="#A8908E"/>
<path d="M663.066 184.688V184.525H412.339V184.688C412.334 188.404 413.728 191.985 416.244 194.72H659.162C661.678 191.985 663.072 188.404 663.066 184.688Z" fill="#E8E3E3"/>
<path d="M416.244 194.717C417.632 196.234 419.321 197.444 421.203 198.272C423.085 199.099 425.119 199.526 427.174 199.523H648.231C650.287 199.526 652.321 199.1 654.203 198.272C656.085 197.445 657.774 196.234 659.162 194.717H416.244Z" fill="#A8908E"/>
<path d="M421.401 39.9128C406.555 43.6564 395.175 57.721 393.77 72.9656C392.366 88.2103 400.541 103.722 413.462 111.939C426.384 120.156 443.389 121.106 457.524 115.22C471.658 109.334 482.756 97.0042 488.016 82.6162C491.264 73.7392 492.289 63.4656 487.939 55.073C485.146 49.6835 479.63 45.4846 473.634 44.381C468.958 43.5217 465.222 45.6878 460.698 45.701C454.394 45.7248 448.224 41.6236 442.117 40.1914C435.316 38.6087 428.218 38.1942 421.401 39.9128Z" fill="#A0D5FD"/>
<path d="M300.263 104.007C296.471 110.69 294.331 118.936 297.182 126.071C299.115 130.907 303.154 134.682 307.724 137.178C321.349 144.619 339.759 140.539 350.073 128.938C358.887 119.023 368.045 87.285 350.874 80.6071C333.021 73.6639 308.726 89.1 300.263 104.007Z" fill="#A0D5FD"/>
<path d="M165.983 272.877C164.366 278.97 166.468 286.146 171.714 289.641C176.959 293.136 185.09 291.869 188.318 286.455C190.071 283.512 190.274 279.922 190.237 276.499C190.17 270.318 188.988 260.432 181.32 259.248C174.22 258.151 167.557 266.946 165.983 272.877Z" fill="#A0D5FD"/>
<path d="M438.666 482.096C397.377 494.986 369.328 491.827 353.096 486.937L331.373 447.388C331.373 447.388 295.725 426.955 287.03 389.136C278.335 351.317 339.636 348.427 339.636 348.427L371.184 388.839C370.284 386.539 369.501 384.195 368.838 381.815C362.605 359.257 372.798 348.24 375.659 338.291L420.831 349.993C424.553 362.879 425.487 381.225 413.313 401.85C413.333 401.936 413.354 402.019 413.375 402.105C422.205 439.142 432.25 466.521 438.666 482.096Z" fill="#F8BC7F"/>
<path d="M200.869 229.247L200.317 230.991L216.939 236.245L217.49 234.5L200.869 229.247Z" fill="#93C74B"/>
<path d="M249.178 190.026L247.446 190.615L254.833 212.353L256.566 211.764L249.178 190.026Z" fill="#93C74B"/>
<path d="M337.417 186.175L324.754 202.227L326.19 203.36L338.854 187.308L337.417 186.175Z" fill="#93C74B"/>
<path d="M377.155 232.115L341.903 246.89L342.61 248.577L377.862 233.802L377.155 232.115Z" fill="#93C74B"/>
<path d="M300.465 195.168L231.518 219.258C219.999 223.283 213.923 235.885 217.948 247.404L274.783 410.064C278.808 421.583 291.41 427.659 302.929 423.634L371.876 399.543C383.395 395.518 389.47 382.917 385.445 371.397L328.61 208.737C324.585 197.218 311.984 191.143 300.465 195.168Z" fill="#023240"/>
<path d="M301.231 200.426L234.193 223.85C224.56 227.215 219.48 237.753 222.846 247.386L278.626 407.028C281.992 416.661 292.53 421.741 302.163 418.375L369.2 394.952C378.833 391.586 383.914 381.048 380.548 371.415L324.767 211.773C321.401 202.14 310.864 197.06 301.231 200.426Z" fill="#F6FFD1"/>
<path d="M270.117 220.527C272.157 220.527 273.811 218.873 273.811 216.832C273.811 214.792 272.157 213.138 270.117 213.138C268.076 213.138 266.422 214.792 266.422 216.832C266.422 218.873 268.076 220.527 270.117 220.527Z" fill="#023240"/>
<path d="M249.732 247.431L242.345 250.012L248.439 267.454L255.826 264.873L249.732 247.431Z" fill="#93C74B"/>
<path d="M269.25 251.893L261.863 254.474L264.444 261.861L271.831 259.28L269.25 251.893Z" fill="#93C74B"/>
<path d="M279.984 233.411L272.629 235.993L279.371 255.2L286.727 252.617L279.984 233.411Z" fill="#93C74B"/>
<path d="M295.273 223.574L287.886 226.155L296.454 250.677L303.841 248.096L295.273 223.574Z" fill="#93C74B"/>
<path d="M310.31 215.212L302.923 217.793L312.459 245.084L319.846 242.503L310.31 215.212Z" fill="#93C74B"/>
<path d="M333.8 237.627L231.878 273.24L236.216 285.654L338.137 250.041L333.8 237.627Z" fill="#FDE81D"/>
<path d="M268.669 284.332L257.897 288.096C254.327 289.343 252.444 293.248 253.691 296.818L257.456 307.591C258.703 311.16 262.608 313.043 266.178 311.796L276.95 308.032C280.52 306.784 282.403 302.879 281.156 299.309L277.391 288.537C276.144 284.967 272.239 283.084 268.669 284.332Z" fill="#FDE81D"/>
<path d="M278.671 312.957L267.898 316.721C264.328 317.968 262.445 321.873 263.693 325.443L267.457 336.216C268.704 339.785 272.609 341.668 276.179 340.421L286.952 336.657C290.521 335.409 292.404 331.504 291.157 327.935L287.393 317.162C286.145 313.592 282.24 311.709 278.671 312.957Z" fill="#FDE81D"/>
<path d="M307.912 270.62L285.751 278.364L287.198 282.506L309.359 274.763L307.912 270.62Z" fill="#93C74B"/>
<path d="M333.49 272.655L289.168 288.142L290.616 292.284L334.938 276.798L333.49 272.655Z" fill="#93C74B"/>
<path d="M302.128 294.588L292.586 297.922L294.034 302.064L303.575 298.73L302.128 294.588Z" fill="#93C74B"/>
<path d="M322.993 297.47L295.753 306.988L297.2 311.13L324.441 301.612L322.993 297.47Z" fill="#93C74B"/>
<path d="M337.03 303.539L299.171 316.767L300.618 320.909L338.477 307.681L337.03 303.539Z" fill="#93C74B"/>
<path d="M346.91 311.06L302.588 326.546L304.035 330.688L348.357 315.202L346.91 311.06Z" fill="#93C74B"/>
<path d="M349.284 322.821L272.823 349.537C269.745 350.613 268.121 353.981 269.197 357.059L286.058 405.315C287.134 408.393 290.501 410.017 293.579 408.941L370.04 382.225C373.119 381.149 374.742 377.782 373.667 374.704L356.805 326.447C355.73 323.369 352.362 321.746 349.284 322.821Z" fill="#93C74B"/>
<path d="M308.77 356.136C309.653 358.669 309.536 361.443 308.443 363.893C307.35 366.342 305.363 368.282 302.889 369.317C300.414 370.352 297.637 370.403 295.126 369.46C292.615 368.517 290.558 366.651 289.376 364.243C288.194 361.835 287.975 359.067 288.764 356.503C289.553 353.94 291.292 351.774 293.623 350.448C295.955 349.123 298.705 348.737 301.312 349.37C303.918 350.002 306.185 351.606 307.65 353.854C308.114 354.566 308.491 355.333 308.77 356.136Z" fill="#52A756"/>
<path d="M308.77 356.136C309.38 357.873 309.522 359.739 309.182 361.548L298.818 359.613C298.818 359.613 300.363 353.912 301.419 349.396C303.106 349.824 304.661 350.664 305.943 351.841C307.226 353.017 308.198 354.493 308.77 356.136Z" fill="#FE4775"/>
<path d="M335.239 346.879L335.25 336.335C332.916 336.333 330.647 337.106 328.8 338.532C326.952 339.959 325.631 341.959 325.042 344.217C324.454 346.476 324.632 348.866 325.549 351.013C326.466 353.159 328.069 354.941 330.108 356.078C332.146 357.215 334.505 357.643 336.813 357.295C339.121 356.947 341.248 355.842 342.86 354.155C344.473 352.467 345.48 350.292 345.723 347.971C345.966 345.649 345.431 343.313 344.203 341.328L335.239 346.879Z" fill="#52A756"/>
<path d="M344.203 341.328C344.16 341.258 344.117 341.188 344.071 341.12C343.113 339.653 341.805 338.447 340.265 337.612C338.724 336.777 337.001 336.338 335.248 336.335L335.238 346.879L344.203 341.328Z" fill="#FE4775"/>
<path d="M314.167 382.345L302.512 374.33L298.387 387.86L303.558 386.052L307.107 396.21L312.544 394.309L308.995 384.152L314.167 382.345Z" fill="#FE4775"/>
<path d="M335.886 374.064L347.54 382.079L351.665 368.551L346.495 370.356L342.945 360.2L337.508 362.1L341.056 372.257L335.886 374.064Z" fill="#F6FFD1"/>
<g opacity="0.5">
<path d="M318.962 203.499L256.249 342.951L241.304 300.183L285.814 205.803L301.235 200.414C304.207 199.373 307.397 199.11 310.5 199.65C313.603 200.19 316.516 201.515 318.962 203.499Z" fill="white"/>
<path d="M360.206 313.162L308.15 416.274L302.173 418.363C297.547 419.978 292.468 419.689 288.055 417.561C283.641 415.432 280.254 411.637 278.638 407.011L265.03 368.071L331.888 232.127L360.206 313.162Z" fill="white"/>
<path opacity="0.4" d="M318.962 203.499L256.249 342.951L241.304 300.183L285.814 205.803L301.235 200.414C304.207 199.373 307.397 199.11 310.5 199.65C313.603 200.19 316.516 201.515 318.962 203.499Z" fill="white"/>
<path opacity="0.3" d="M360.206 313.162L308.15 416.274L302.173 418.363C297.547 419.978 292.468 419.689 288.055 417.561C283.641 415.432 280.254 411.637 278.638 407.011L265.03 368.071L331.888 232.127L360.206 313.162Z" fill="white"/>
</g>
<path d="M236.016 297.375L230.245 300.895C229.117 301.583 228.256 302.632 227.803 303.872C227.349 305.112 227.33 306.47 227.747 307.722L229.859 314.052C230.106 314.79 230.497 315.471 231.01 316.056C231.524 316.64 232.149 317.116 232.849 317.456C233.549 317.795 234.31 317.992 235.087 318.033C235.864 318.074 236.641 317.96 237.373 317.696L244.283 315.208C245.036 314.937 245.726 314.513 246.309 313.964C246.891 313.415 247.355 312.752 247.67 312.016C247.985 311.28 248.146 310.487 248.142 309.686C248.137 308.886 247.968 308.095 247.645 307.362L244.397 300C244.061 299.239 243.567 298.559 242.947 298.005C242.327 297.451 241.595 297.035 240.802 296.787C240.008 296.538 239.171 296.462 238.345 296.563C237.52 296.665 236.726 296.941 236.016 297.375Z" fill="#F8BC7F"/>
<path d="M238.117 340.241L240.757 348.646C241.035 349.53 241.488 350.35 242.089 351.055C242.69 351.76 243.427 352.337 244.255 352.752C245.084 353.166 245.988 353.409 246.913 353.467C247.838 353.524 248.765 353.395 249.638 353.087L255.904 350.876C257.61 350.273 259.011 349.025 259.806 347.4C260.601 345.775 260.726 343.903 260.154 342.186L257.599 334.524C257.056 332.894 255.925 331.526 254.426 330.686C252.928 329.847 251.171 329.596 249.497 329.983L243.144 331.452C242.218 331.666 241.346 332.07 240.583 332.637C239.82 333.204 239.183 333.923 238.711 334.748C238.239 335.574 237.943 336.487 237.841 337.432C237.738 338.378 237.833 339.334 238.117 340.241Z" fill="#F8BC7F"/>
<path d="M250.932 379.018L253.396 385.444C254.048 387.143 255.344 388.516 257.003 389.264C258.662 390.012 260.549 390.074 262.254 389.437L267.524 387.469C269.222 386.836 270.603 385.561 271.368 383.919C272.134 382.278 272.223 380.4 271.616 378.693L269.298 372.175C268.991 371.31 268.513 370.514 267.894 369.835C267.275 369.157 266.526 368.609 265.692 368.223C264.858 367.838 263.955 367.623 263.037 367.591C262.119 367.559 261.204 367.711 260.345 368.037L254.933 370.099C254.084 370.42 253.306 370.907 252.645 371.529C251.984 372.152 251.452 372.899 251.08 373.728C250.709 374.556 250.504 375.45 250.479 376.358C250.453 377.266 250.607 378.17 250.932 379.018Z" fill="#F8BC7F"/>
<path d="M266.128 407.953L266.748 409.576C267.361 411.18 268.55 412.497 270.083 413.271C271.615 414.045 273.381 414.22 275.035 413.762L275.729 413.569C276.662 413.311 277.529 412.86 278.276 412.245C279.022 411.63 279.631 410.865 280.063 409.999C280.495 409.134 280.74 408.187 280.782 407.221C280.824 406.254 280.663 405.29 280.309 404.39L279.678 402.79C279.065 401.236 277.91 399.957 276.426 399.19C274.942 398.423 273.23 398.22 271.608 398.619L270.923 398.788C269.974 399.022 269.085 399.455 268.315 400.059C267.545 400.662 266.913 401.422 266.459 402.289C266.006 403.156 265.742 404.109 265.685 405.085C265.627 406.062 265.779 407.039 266.128 407.953Z" fill="#F8BC7F"/>
<path d="M411.525 330.774C411.525 330.774 360.825 270.45 356.745 266.38C352.664 262.31 350.712 266.38 350.712 266.38C350.712 266.38 337.344 280.24 346.8 298.17C356.255 316.099 376.312 334.356 376.312 335.016C376.197 336.127 375.98 337.224 375.663 338.295L420.836 349.997C417.384 338.03 411.525 330.774 411.525 330.774Z" fill="#F8BC7F"/>
<path d="M356.26 269.108C356.26 269.108 348.925 272.859 356.26 283.944C363.595 295.029 370.443 293.568 370.443 293.568L374.588 289.08L356.26 269.108Z" fill="white"/>
<path d="M412.339 258.513C432.506 258.513 448.855 242.164 448.855 221.996C448.855 201.829 432.506 185.48 412.339 185.48C392.172 185.48 375.823 201.829 375.823 221.996C375.823 242.164 392.172 258.513 412.339 258.513Z" fill="white" stroke="#93C74B" stroke-width="13.86" stroke-miterlimit="10"/>
<path d="M356.26 191.565C376.428 191.565 392.777 175.216 392.777 155.049C392.777 134.881 376.428 118.532 356.26 118.532C336.093 118.532 319.744 134.881 319.744 155.049C319.744 175.216 336.093 191.565 356.26 191.565Z" fill="white" stroke="#93C74B" stroke-width="13.86" stroke-miterlimit="10"/>
<path d="M356.26 184.936C372.766 184.936 386.148 171.555 386.148 155.049C386.148 138.542 372.766 125.161 356.26 125.161C339.754 125.161 326.373 138.542 326.373 155.049C326.373 171.555 339.754 184.936 356.26 184.936Z" fill="#DAEEFD"/>
<path d="M412.339 251.884C428.845 251.884 442.226 238.503 442.226 221.996C442.226 205.49 428.845 192.109 412.339 192.109C395.833 192.109 382.452 205.49 382.452 221.996C382.452 238.503 395.833 251.884 412.339 251.884Z" fill="#DAEEFD"/>
<path d="M367.671 161.782C367.671 163.28 367.376 164.764 366.803 166.149C366.229 167.533 365.389 168.791 364.329 169.851C363.27 170.911 362.012 171.751 360.627 172.325C359.243 172.898 357.759 173.193 356.26 173.193C354.762 173.193 353.278 172.898 351.893 172.325C350.509 171.751 349.251 170.911 348.191 169.851C347.131 168.791 346.291 167.533 345.717 166.149C345.144 164.764 344.849 163.28 344.849 161.782C344.849 155.48 356.26 138.715 356.26 138.715C356.26 138.715 367.671 155.48 367.671 161.782Z" fill="#75BEE9"/>
<path d="M237.798 191.565C257.965 191.565 274.314 175.216 274.314 155.049C274.314 134.881 257.965 118.532 237.798 118.532C217.63 118.532 201.281 134.881 201.281 155.049C201.281 175.216 217.63 191.565 237.798 191.565Z" fill="white" stroke="#93C74B" stroke-width="13.86" stroke-miterlimit="10"/>
<path d="M237.798 184.936C254.304 184.936 267.685 171.555 267.685 155.049C267.685 138.542 254.304 125.161 237.798 125.161C221.292 125.161 207.911 138.542 207.911 155.049C207.911 171.555 221.292 184.936 237.798 184.936Z" fill="#DAEEFD"/>
<path d="M165.45 256.719C185.618 256.719 201.967 240.37 201.967 220.202C201.967 200.035 185.618 183.686 165.45 183.686C145.283 183.686 128.934 200.035 128.934 220.202C128.934 240.37 145.283 256.719 165.45 256.719Z" fill="#DAEEFD" stroke="#93C74B" stroke-width="13.86" stroke-miterlimit="10"/>
<path d="M165.45 250.09C181.957 250.09 195.338 236.709 195.338 220.202C195.338 203.696 181.957 190.315 165.45 190.315C148.944 190.315 135.563 203.696 135.563 220.202C135.563 236.709 148.944 250.09 165.45 250.09Z" fill="white"/>
<path d="M172.879 217.519C172.664 217.607 172.457 217.705 172.252 217.809C172.271 217.626 172.284 217.441 172.289 217.255C172.475 211.366 166.247 204.174 166.247 204.174C166.247 204.174 159.72 210.965 159.534 216.846C159.519 217.362 159.551 217.878 159.629 218.389C159.126 218.041 158.587 217.747 158.022 217.512C152.576 215.268 145.729 219.344 145.729 219.344C145.729 219.344 147.709 227.064 153.157 229.31C158.243 231.407 164.549 227.99 165.362 227.528C165.494 227.646 165.576 227.708 165.576 227.708L165.7 227.618C166.973 228.315 172.911 231.304 177.743 229.31C183.19 227.066 185.172 219.344 185.172 219.344C185.172 219.344 178.324 215.274 172.879 217.519Z" fill="#75BEE9"/>
<path d="M410.256 228.392V206.072C410.256 205.519 410.148 204.972 409.936 204.462C409.725 203.952 409.415 203.488 409.025 203.097C408.634 202.707 408.17 202.397 407.66 202.185C407.15 201.974 406.603 201.865 406.05 201.865C404.935 201.865 403.865 202.308 403.076 203.097C402.287 203.886 401.844 204.956 401.844 206.072V228.392C400.77 229.117 399.903 230.109 399.326 231.269C398.749 232.429 398.481 233.719 398.55 235.013C398.619 236.307 399.021 237.561 399.718 238.653C400.415 239.746 401.383 240.639 402.527 241.247C403.672 241.855 404.954 242.156 406.249 242.122C407.544 242.088 408.809 241.719 409.92 241.051C411.03 240.384 411.949 239.44 412.587 238.313C413.225 237.185 413.561 235.911 413.561 234.615C413.556 232.026 412.249 229.357 410.256 228.392Z" fill="white"/>
<path d="M424.711 212.644H416.531C415.741 212.644 415.1 213.285 415.1 214.075V214.706C415.1 215.496 415.741 216.137 416.531 216.137H424.711C425.502 216.137 426.142 215.496 426.142 214.706V214.075C426.142 213.285 425.502 212.644 424.711 212.644Z" fill="#6DBFFD"/>
<path d="M424.711 220.25H416.531C415.741 220.25 415.1 220.891 415.1 221.681V222.312C415.1 223.102 415.741 223.743 416.531 223.743H424.711C425.502 223.743 426.142 223.102 426.142 222.312V221.681C426.142 220.891 425.502 220.25 424.711 220.25Z" fill="#6DBFFD"/>
<path d="M407.792 230.658V221.427H404.305V230.658C403.345 231.061 402.554 231.783 402.066 232.703C401.578 233.623 401.424 234.684 401.629 235.704C401.835 236.725 402.387 237.643 403.193 238.303C403.998 238.963 405.007 239.323 406.049 239.323C407.09 239.323 408.099 238.963 408.904 238.303C409.71 237.643 410.262 236.725 410.468 235.704C410.673 234.684 410.519 233.623 410.031 232.703C409.543 231.783 408.752 231.061 407.792 230.658Z" fill="#52A756"/>
<path d="M407.792 209.088C407.798 208.855 407.758 208.623 407.673 208.406C407.588 208.189 407.461 207.991 407.298 207.824C407.136 207.657 406.942 207.524 406.727 207.434C406.512 207.343 406.282 207.296 406.049 207.296C405.816 207.296 405.585 207.343 405.37 207.434C405.156 207.524 404.961 207.657 404.799 207.824C404.636 207.991 404.509 208.189 404.424 208.406C404.339 208.623 404.299 208.855 404.305 209.088V221.423H407.792V209.088Z" fill="#8AC6E9"/>
<path d="M237.798 163.115C242.253 163.115 245.864 159.504 245.864 155.049C245.864 150.593 242.253 146.982 237.798 146.982C233.343 146.982 229.731 150.593 229.731 155.049C229.731 159.504 233.343 163.115 237.798 163.115Z" fill="#FE4775"/>
<path d="M246.972 146.606L249.894 143.683C250.686 142.891 249.46 141.669 248.67 142.458L245.748 145.381C244.958 146.17 246.18 147.395 246.972 146.606Z" fill="#FE4775"/>
<path d="M241.519 143.157C241.877 141.826 242.234 140.496 242.59 139.165C242.879 138.087 241.208 137.627 240.919 138.704L239.844 142.692C239.56 143.774 241.231 144.234 241.519 143.157Z" fill="#FE4775"/>
<path d="M233.401 143.337C233.69 144.413 235.361 143.957 235.072 142.877C234.72 141.546 234.363 140.216 234.002 138.885C233.714 137.809 232.043 138.266 232.332 139.346L233.401 143.337Z" fill="#FE4775"/>
<path d="M228.13 147.099C228.922 147.891 230.145 146.664 229.355 145.874L226.433 142.956C225.641 142.164 224.418 143.39 225.208 144.18L228.13 147.099Z" fill="#FE4775"/>
<path d="M221.454 151.932L225.445 153.003C226.524 153.292 226.983 151.62 225.906 151.331L221.914 150.262C220.836 149.968 220.377 151.639 221.454 151.932Z" fill="#FE4775"/>
<path d="M225.626 157.774L221.635 158.844C220.559 159.133 221.015 160.804 222.095 160.515L226.087 159.444C227.163 159.156 226.706 157.485 225.626 157.774Z" fill="#FE4775"/>
<path d="M228.624 163.491L225.703 166.414C224.911 167.206 226.137 168.428 226.926 167.637L229.849 164.716C230.638 163.927 229.416 162.702 228.624 163.491Z" fill="#FE4775"/>
<path d="M234.076 166.94L233.006 170.932C232.717 172.011 234.388 172.47 234.676 171.393C235.034 170.062 235.391 168.732 235.747 167.401C236.036 166.32 234.365 165.863 234.076 166.94Z" fill="#FE4775"/>
<path d="M242.195 166.76C241.906 165.684 240.235 166.14 240.524 167.22C240.876 168.551 241.233 169.881 241.594 171.212C241.882 172.288 243.553 171.831 243.264 170.751L242.195 166.76Z" fill="#FE4775"/>
<path d="M247.466 162.998C246.674 162.206 245.451 163.432 246.241 164.221L249.163 167.144C249.955 167.936 251.177 166.709 250.387 165.919L247.466 162.998Z" fill="#FE4775"/>
<path d="M254.142 158.169L250.151 157.1C249.072 156.811 248.613 158.482 249.69 158.77L253.682 159.84C254.76 160.128 255.219 158.458 254.142 158.169Z" fill="#FE4775"/>
<path d="M249.97 152.328L253.961 151.257C255.037 150.97 254.58 149.299 253.501 149.588L249.509 150.657C248.433 150.941 248.89 152.612 249.97 152.328Z" fill="#FE4775"/>
<path d="M563.14 350.812C548.931 387.256 516.652 413.155 484.688 433.972H488.413C511.161 419.266 532.381 401.655 548.976 380.165C555.618 371.406 561.341 361.84 565.013 351.443C564.365 351.311 563.736 351.099 563.14 350.812Z" fill="#69A31A"/>
<path d="M524.629 414.653C509.429 413.316 507.826 429.049 522.983 430.804C538.182 432.142 539.784 416.407 524.629 414.653Z" fill="#69A31A"/>
<path d="M539.865 398.169C527.362 398.257 527.224 414.096 539.722 414.405C552.225 414.315 552.363 398.478 539.865 398.169Z" fill="#69A31A"/>
<path d="M567.298 384.12C564.42 380.993 559.516 380.248 555.418 380.87C550.114 381.496 546.178 386.227 551.38 390.211C554.321 392.439 558.856 393.095 562.492 392.263C566.366 391.557 570.756 387.861 567.298 384.12Z" fill="#69A31A"/>
<path d="M578.474 365.177C576.724 359.514 569.684 357.856 564.629 360.029C557.282 362.958 559.499 369.96 565.917 372.166C570.512 373.733 579.658 371.375 578.474 365.177Z" fill="#69A31A"/>
<path d="M565.013 351.442C570.557 352.717 575.3 346.808 574.121 341.542C573.112 335.602 566.038 333.61 561.449 336.97C555.251 340.98 558.339 350.121 565.013 351.442Z" fill="#69A31A"/>
<path d="M554.095 363C561.788 357.984 551.505 342.181 543.799 347.184C536.093 352.187 546.394 368.008 554.095 363Z" fill="#69A31A"/>
<path d="M531.86 375.35C532.471 378.394 534.632 381.565 537.352 383.073C540.729 385.179 544.945 383.856 545.219 379.582C545.577 374.621 542.15 369.166 537.236 367.902C532.875 366.87 530.896 371.752 531.86 375.35Z" fill="#69A31A"/>
<path d="M520.359 395.818C522.464 400.821 528.279 402.704 530.463 396.779C532.365 391.867 530.424 382.186 524.2 381.811C521.378 381.887 519.51 385.296 519.198 388.147C518.834 390.552 519.299 393.624 520.359 395.818Z" fill="#69A31A"/>
<path d="M512.926 413.773C515.224 410.688 515.419 406.117 514.378 402.485C513.168 397.576 508.079 394.119 504.699 399.449C502.775 402.497 502.606 407.025 503.815 410.424C505.073 414.661 509.793 417.942 512.926 413.773Z" fill="#69A31A"/>
<path d="M654.068 376.596C653.572 376.423 653.099 376.19 652.66 375.902C638.536 401.387 612.9 417.878 587.188 430.55H590.906C608.211 421.865 624.604 411.114 638.392 397.502C644.556 391.313 650.072 384.392 654.068 376.596Z" fill="#69A31A"/>
<path d="M615.565 422.062C603.743 419.394 600.81 431.608 612.553 434.602C624.375 437.268 627.308 425.055 615.565 422.062Z" fill="#69A31A"/>
<path d="M629.309 410.706C619.459 409.448 617.666 421.9 627.471 423.469C637.322 424.728 639.114 412.277 629.309 410.706Z" fill="#69A31A"/>
<path d="M652.395 402.56C650.463 399.788 646.681 398.686 643.392 398.74C639.151 398.669 635.548 401.974 639.221 405.662C641.3 407.729 644.799 408.727 647.749 408.459C650.871 408.317 654.72 405.875 652.395 402.56Z" fill="#69A31A"/>
<path d="M663.205 388.84C662.429 384.197 657.063 382.144 652.852 383.32C646.758 384.846 647.76 390.593 652.578 393.012C656.028 394.729 663.477 393.844 663.205 388.84Z" fill="#69A31A"/>
<path d="M654.068 376.596C658.292 378.189 662.657 374.042 662.288 369.774C662.127 364.989 656.77 362.671 652.799 364.828C647.497 367.327 648.956 374.85 654.068 376.596Z" fill="#69A31A"/>
<path d="M644.246 384.541C650.834 381.411 644.42 367.879 637.827 370.998C631.233 374.117 637.652 387.66 644.246 384.541Z" fill="#69A31A"/>
<path d="M625.432 391.895C625.59 394.355 626.951 397.08 628.935 398.558C631.369 400.574 634.829 399.98 635.498 396.645C636.307 392.778 634.19 388.12 630.456 386.604C627.132 385.328 625.056 388.959 625.432 391.895Z" fill="#69A31A"/>
<path d="M614.205 406.784C615.33 410.945 619.71 413.045 622.057 408.614C624.076 404.95 623.576 397.13 618.717 396.166C616.488 395.926 614.655 398.41 614.108 400.619C613.565 402.477 613.603 404.943 614.205 406.784Z" fill="#69A31A"/>
<path d="M606.448 420.127C608.583 417.942 609.22 414.368 608.791 411.396C608.359 407.403 604.721 404.136 601.495 407.978C599.656 410.173 599.042 413.718 599.632 416.522C600.171 419.991 603.538 423.075 606.448 420.127Z" fill="#69A31A"/>
<path d="M457.363 434.89C457.363 434.89 431.39 422.459 434.214 388.872C456.798 385.485 484.688 433.978 484.688 433.978L457.363 434.89Z" fill="#588A16"/>
<path d="M477.111 434.23C477.111 434.23 434.516 380.308 458.078 338.291C468.372 363.459 503.052 433.356 503.052 433.356L477.111 434.23Z" fill="#69A31A"/>
<path d="M488.884 429C485.602 424.876 482.569 420.56 479.802 416.075C478.241 413.548 476.692 410.845 475.191 407.987C474.436 406.561 473.707 405.083 472.98 403.591C472.625 402.838 472.264 402.08 471.913 401.312C471.562 400.543 471.211 399.769 470.876 398.982C470.185 397.416 469.556 395.848 468.935 394.301C468.336 392.746 467.747 391.211 467.219 389.681C466.14 386.645 465.218 383.661 464.412 380.8C462.989 375.724 461.856 370.571 461.018 365.365C460.304 360.912 459.954 357.266 459.784 354.742C459.613 352.218 459.619 350.811 459.619 350.811C459.619 350.811 459.452 352.206 459.386 354.75C459.305 358.345 459.429 361.942 459.757 365.523C460.237 370.849 461.099 376.134 462.337 381.337C463.04 384.276 463.882 387.34 464.917 390.465C465.424 392.032 465.996 393.607 466.591 395.2C467.186 396.793 467.841 398.392 468.546 399.99C468.886 400.794 469.255 401.581 469.611 402.366C469.968 403.152 470.349 403.919 470.719 404.684C471.479 406.206 472.247 407.697 473.048 409.135C474.642 412.018 476.309 414.724 477.998 417.232C480.987 421.669 484.303 425.877 487.918 429.82C489.286 431.311 490.577 432.635 491.755 433.797H492.888C491.682 432.416 490.332 430.814 488.884 429Z" fill="#BCD845"/>
<path d="M464.78 428.79C461.612 426.046 458.626 423.099 455.841 419.967L455.284 419.348L454.748 418.719L453.681 417.472C453.339 417.052 453 416.633 452.665 416.217C452.496 416.01 452.327 415.804 452.161 415.598C451.994 415.392 451.837 415.18 451.676 414.972L450.721 413.736C450.41 413.322 450.112 412.907 449.811 412.5L449.362 411.891C449.213 411.691 449.076 411.482 448.932 411.28L448.089 410.078C447.006 408.473 445.991 406.932 445.105 405.45C444.647 404.717 444.241 403.989 443.832 403.297C443.632 402.95 443.445 402.604 443.255 402.267C443.065 401.931 442.881 401.607 442.711 401.277C442.541 400.947 442.368 400.635 442.201 400.326L441.733 399.415C441.424 398.826 441.157 398.259 440.895 397.733C440.39 396.677 439.963 395.753 439.637 394.994C439.311 394.235 439.064 393.637 438.904 393.229C438.744 392.821 438.666 392.605 438.666 392.605C438.666 392.605 438.705 392.833 438.798 393.265C438.892 393.697 439.04 394.321 439.262 395.129C439.483 395.937 439.776 396.912 440.149 398.041C440.345 398.6 440.545 399.205 440.785 399.833L441.152 400.806L441.561 401.824C441.693 402.172 441.85 402.523 442.006 402.88C442.162 403.236 442.319 403.608 442.486 403.981C442.834 404.721 443.179 405.501 443.582 406.287C444.354 407.871 445.273 409.522 446.283 411.234L447.075 412.518C447.207 412.734 447.339 412.954 447.485 413.168C447.632 413.382 447.77 413.598 447.914 413.815C448.203 414.248 448.491 414.689 448.793 415.125L449.731 416.435C449.89 416.654 450.046 416.877 450.211 417.095L450.713 417.747L451.734 419.067L452.817 420.366L453.366 421.026L453.94 421.666C458.432 426.722 463.662 431.069 469.454 434.56H472.168C469.933 432.967 467.403 431.059 464.78 428.79Z" fill="#C4DD5D"/>
<path d="M506.859 433.668C506.859 433.668 526.54 395.054 567.27 403.62C562.566 423.964 543.359 432 543.359 432L506.859 433.668Z" fill="#588A16"/>
<path d="M557.824 410.81L556.649 410.983L555.976 411.085C555.859 411.103 555.738 411.119 555.618 411.142L555.253 411.216L553.657 411.546C553.514 411.573 553.372 411.608 553.229 411.645L552.792 411.757L551.884 411.992C548.984 412.786 546.151 413.804 543.408 415.037C540.053 416.539 536.812 418.285 533.712 420.26C530.617 422.223 527.64 424.366 524.796 426.678C522.174 428.801 519.912 430.831 518.08 432.596C517.871 432.796 517.667 432.993 517.469 433.186H519.411C521.33 431.764 523.583 430.137 526.085 428.39C528.809 426.484 531.84 424.451 535.069 422.408C538.297 420.365 541.432 418.521 544.348 416.964C546.929 415.575 549.579 414.317 552.288 413.196L553.141 412.854L553.551 412.689C553.683 412.633 553.815 412.581 553.954 412.536L555.459 411.993L555.806 411.861C555.919 411.822 556.033 411.789 556.144 411.753L556.783 411.552L557.905 411.193C559.267 410.826 560.029 410.612 560.029 410.612C560.029 410.612 559.247 410.674 557.824 410.81Z" fill="#C4DD5D"/>
<path d="M581.955 430.885C581.955 430.885 568.166 398.941 592.3 385.004C606.118 414.069 595.684 430.663 595.684 430.663L581.955 430.885Z" fill="#588A16"/>
<path d="M588.564 416.778C588.564 416.361 588.564 415.946 588.574 415.536C588.583 415.125 588.593 414.715 588.604 414.308C588.604 414.105 588.61 413.903 588.618 413.703C588.626 413.502 588.636 413.3 588.643 413.099C588.659 412.7 588.675 412.304 588.69 411.911C588.779 410.338 588.865 408.818 588.999 407.372C589.24 404.477 589.574 401.871 589.894 399.683C590.54 395.306 591.171 392.606 591.171 392.606C591.171 392.606 590.865 393.228 590.394 394.39C589.923 395.551 589.292 397.254 588.654 399.406C587.902 401.931 587.307 404.501 586.872 407.1C586.616 408.568 586.426 410.123 586.265 411.738C586.233 412.144 586.201 412.553 586.17 412.965C586.154 413.171 586.139 413.376 586.125 413.585C586.11 413.794 586.104 414.002 586.093 414.211C586.077 414.63 586.059 415.053 586.04 415.479C586.027 415.904 586.029 416.333 586.025 416.765C586.007 417.627 586.043 418.481 586.067 419.32C586.075 419.741 586.112 420.157 586.135 420.57C586.159 420.984 586.194 421.393 586.221 421.799C586.249 422.206 586.306 422.606 586.353 423.005C586.401 423.403 586.43 423.797 586.493 424.183C586.557 424.57 586.607 424.954 586.662 425.333C586.691 425.523 586.719 425.712 586.748 425.898C586.777 426.084 586.815 426.27 586.848 426.454C586.92 426.822 586.99 427.185 587.058 427.543C587.092 427.721 587.127 427.899 587.161 428.071C587.195 428.242 587.243 428.42 587.283 428.599C587.364 428.943 587.446 429.282 587.525 429.618C587.605 429.953 587.68 430.278 587.778 430.599C587.803 430.69 587.828 430.778 587.854 430.863H589.57C588.844 426.204 588.508 421.493 588.564 416.778Z" fill="#C4DD5D"/>
<path d="M255.651 344.453C255.221 339.866 252.269 335.272 248.064 333.445C251.121 338.189 253.707 343.818 255.087 349.334C255.613 347.952 255.804 345.996 255.651 344.453Z" fill="#D58B41"/>
<path d="M266.731 381.842C266.455 377.528 263.861 372.901 260.086 370.845C262.441 375.709 264.678 381.279 266.136 386.518C266.64 385.185 266.842 383.348 266.731 381.842Z" fill="#D58B41"/>
<path d="M243.089 309.569C242.456 305.927 239.632 302.464 236.189 301.204C238.773 305.449 241.024 309.889 242.921 314.482C243.349 313.02 243.4 311.141 243.089 309.569Z" fill="#D58B41"/>
<path d="M275.365 404.729C274.668 403.168 273.633 402.174 272.305 401.647C272.265 404.497 273.355 406.96 275.192 409.097C275.888 407.802 275.959 406.344 275.365 404.729Z" fill="#D58B41"/>
</g>
<defs>
<filter id="filter0_d_333_3261" x="-16.9" y="-13.9" width="833.8" height="569.8" filterUnits="userSpaceOnUse" color-interpolation-filters="sRGB">
<feFlood flood-opacity="0" result="BackgroundImageFix"/>
<feColorMatrix in="SourceAlpha" type="matrix" values="0 0 0 0 0 0 0 0 0 0 0 0 0 0 0 0 0 0 127 0" result="hardAlpha"/>
<feOffset dx="4" dy="7"/>
<feGaussianBlur stdDeviation="10.45"/>
<feComposite in2="hardAlpha" operator="out"/>
<feColorMatrix type="matrix" values="0 0 0 0 0 0 0 0 0 0 0 0 0 0 0 0 0 0 0.25 0"/>
<feBlend mode="normal" in2="BackgroundImageFix" result="effect1_dropShadow_333_3261"/>
<feBlend mode="normal" in="SourceGraphic" in2="effect1_dropShadow_333_3261" result="shape"/>
</filter>
</defs>
</svg>
