<svg width="662" height="428" viewBox="0 0 662 428" fill="none" xmlns="http://www.w3.org/2000/svg">
<g filter="url(#filter0_d_333_2771)">
<path d="M59.1393 96.6307L62.1487 87.4038L88.2467 102.473L84.6228 112.23L88.2467 116.176L93.1712 101.79L60.1251 81.8068L57.824 93.4877L59.1393 96.6307Z" fill="#2F2B2B"/>
<path d="M578.241 255.615H56.2251C56.2251 255.615 56.0885 255.449 55.8331 255.128C51.3659 249.518 10.6681 196.459 36.4945 156.471C46.7235 140.63 67.3879 126.843 104.874 118.864C97.1648 57.1045 164.33 7.11 224.27 36.5396C233.577 41.1062 242.708 47.591 251.36 56.2419C290.677 16.9233 354.023 7.82113 392.595 34.8946C396.071 37.3323 399.332 40.0642 402.341 43.06C405.128 45.8361 407.686 48.8335 409.99 52.0226C412.424 55.3924 415.421 58.3165 418.85 60.6661C419.753 61.2837 420.68 61.8587 421.632 62.3912C428.258 66.1085 435.907 67.5864 443.441 66.6045C449.708 65.782 456.436 65.7909 463.448 66.5585C480.144 68.3846 498.463 74.516 516.024 83.9998C574.677 115.667 571.519 187.016 578.241 255.615Z" fill="#A0D5FD"/>
<path d="M283.621 255.615H58.0794L55.8331 255.128C51.3659 249.518 10.6681 196.459 36.4945 156.471C63.4165 153.712 135.278 151.5 165.554 201.127C232.525 177.419 278.046 219.849 283.621 255.615Z" fill="#6ABEFD"/>
<path d="M421.64 62.3896C391.974 81.5976 367.49 118.118 360.671 153.861C337.016 119.043 263.136 116.317 157.823 193.639C181.874 68.7096 267.697 103.83 267.697 103.83C267.697 103.83 295.037 69.832 354.25 93.0321C361.867 64.6403 376.338 46.4686 392.605 34.8945C396.082 37.3323 399.342 40.0641 402.351 43.0599C405.139 45.8361 407.697 48.8334 410 52.0225C412.434 55.3923 415.431 58.3164 418.86 60.666C419.756 61.2826 420.682 61.8571 421.64 62.3896Z" fill="#E1F1FD"/>
<path d="M578.241 255.615H205.668C213.756 239.82 236.993 201.575 272.41 201.575C290.627 160.404 348.202 151.507 377.263 170.419C389.094 124.528 455.364 85.8094 516.024 83.9996C555.236 105.17 571.228 143.047 576.476 187.017C579.077 208.816 593.707 232.114 578.241 255.615Z" fill="#A0D5FD"/>
<path d="M578.241 255.616H256.509C264.183 241.87 279.529 222.607 301.029 234.979C301.029 234.979 357.562 207.144 388.543 217.179C414.993 232.454 419.561 243.779 419.561 243.779C419.561 243.779 455.507 211.772 503.755 226.326C519.957 216.973 564.914 188.156 595.935 187.016C598.535 208.816 593.707 232.114 578.241 255.616Z" fill="#49B4FD"/>
<path d="M311.604 124.307C306.831 126.02 298.118 127.313 297.398 125.307C296.678 123.302 304.227 118.757 308.997 117.044C313.767 115.331 314.375 116.949 315.095 118.955C315.815 120.96 316.38 122.589 311.604 124.307Z" fill="#FF7731"/>
<path d="M314.747 117.989C314.747 117.989 317.02 114.426 317.806 115.168C318.591 115.91 317.4 117.555 317.4 117.555C317.4 117.555 320.362 116.298 319.924 117.916C319.486 119.534 318.095 119.512 318.095 119.512C318.095 119.512 319.896 119.156 319.553 120.885C319.21 122.615 315.677 120.588 315.677 120.588L314.747 117.989Z" fill="#69A21A"/>
<path d="M578.241 255.614H56.225C50.6117 268.892 48.6921 281.023 49.7328 291.965H559.832C573.084 271.908 578.241 255.614 578.241 255.614Z" fill="#523418"/>
<path d="M314.52 215.645L310.286 229.379H542.746V212.923L314.52 215.645Z" fill="#9CA0A2"/>
<path d="M503.396 118.486H496.862V191.084H503.396V118.486Z" fill="#231F20"/>
<path d="M503.396 107.657H496.862V116.127H503.396V107.657Z" fill="white" stroke="black" stroke-width="10" stroke-linecap="round" stroke-linejoin="round"/>
<path d="M495.713 88.7056H489.181C490.257 95.036 495.786 100.118 496.862 106.447H503.394C502.318 100.118 496.789 95.036 495.713 88.7056Z" fill="#231F20"/>
<path d="M606.736 179.832V219.263H518.499C516.034 219.263 513.669 218.283 511.926 216.54C510.183 214.796 509.204 212.432 509.204 209.967V136.989C509.204 132.217 512.963 128.348 517.601 128.348H563.297C571.969 128.348 579.992 133.068 584.391 140.758L606.736 179.832Z" fill="#FDCD00"/>
<path d="M585.258 219.263H514.9C513.389 219.262 511.94 218.662 510.872 217.593C509.804 216.525 509.204 215.076 509.204 213.565V183.712H560.19C560.19 183.712 584.52 184.493 585.258 219.263Z" fill="#76797A"/>
<path d="M572.01 198.526L571.206 199.898L574.254 203.203L575.686 202.514L578.293 206.363L577.122 207.437L579.059 211.494L580.632 211.257L581.988 215.71L580.551 216.39L581.209 220.844L582.78 221.082L582.766 225.732L581.193 225.959L580.508 230.402L581.941 231.091L580.556 235.53L578.987 235.284L577.022 239.328L578.188 240.409L575.557 244.243L574.129 243.544L571.062 246.831L571.856 248.207L568.211 251.095L567.053 250.007L563.153 252.242L563.507 253.792L559.173 255.477L558.388 254.097L554 255.082L553.882 256.668L549.244 257.001L548.901 255.449L544.417 255.099L543.837 256.583L539.307 255.535L539.436 253.951L535.256 252.281L534.266 253.524L530.245 251.185L530.839 249.71L527.332 246.889L526.018 247.78L522.867 244.365L523.866 243.128L521.342 239.406L519.823 239.876L517.817 235.68L519.137 234.789L517.825 230.484H516.235L515.556 225.882L517.078 225.423L517.093 220.927L515.573 220.458L516.281 215.856L517.869 215.865L519.206 211.573L517.892 210.682L519.923 206.5L521.438 206.978L523.983 203.266L522.991 202.024L526.165 198.624L527.472 199.528L530.996 196.736L530.416 195.251L534.45 192.938L535.432 194.186L539.623 192.553L539.503 190.968L544.04 189.948L544.612 191.433L549.097 191.11L549.45 189.56L554.085 189.923L554.194 191.508L558.575 192.522L559.369 191.144L563.692 192.858L563.328 194.405L567.215 196.664L568.381 195.584L572.01 198.526Z" fill="#1A1A1A"/>
<path d="M319.813 134.916L264.221 137.469L265.976 141.095H321.854L319.813 134.916Z" fill="#E88D00"/>
<path d="M265.976 141.095L296.319 203.775H342.563L321.854 141.095H265.976Z" fill="#FDCD00"/>
<path d="M319.813 134.916L342.563 203.776H351.701L328.235 134.53L319.813 134.916Z" fill="#D99409"/>
<path d="M330.46 141.095L351.701 203.775H353.288L332.894 141.095H330.46Z" fill="#E88D00"/>
<path d="M392.385 141.095H332.894L353.288 203.775H414.04L392.385 141.095Z" fill="#FDCD00"/>
<path d="M389.15 131.732L328.235 134.529L330.46 141.095H392.385L389.15 131.732Z" fill="#E88D00"/>
<path d="M389.15 131.732L414.04 203.776H430.296L401.44 131.168L389.15 131.732Z" fill="#D99409"/>
<path d="M485.521 127.306L475.27 127.777L453.369 203.776H485.521V127.306Z" fill="#D99409"/>
<path d="M475.27 127.777L401.44 131.167L405.386 141.095H471.432L475.27 127.777Z" fill="#E88D00"/>
<path d="M405.386 141.095L430.296 203.775H432.633L407.074 141.095H405.386Z" fill="#E88D00"/>
<path d="M471.432 141.095H407.074L432.633 203.775H453.369L471.432 141.095Z" fill="#FDCD00"/>
<path d="M489.005 123.918H264.221V137.47H489.005V123.918Z" fill="#BE7C0B"/>
<path d="M486.261 203.775H296.319V217.327H486.261V203.775Z" fill="#BE7C0B"/>
<path d="M571.332 223.291C571.333 228.308 569.632 233.177 566.506 237.102C563.38 241.026 559.015 243.774 554.125 244.895C549.234 246.017 544.108 245.445 539.585 243.275C535.061 241.104 531.408 237.463 529.223 232.947C527.038 228.431 526.45 223.306 527.555 218.412C528.66 213.518 531.394 209.144 535.308 206.006C539.222 202.867 544.086 201.15 549.103 201.134C554.12 201.119 558.994 202.806 562.928 205.921C565.547 207.995 567.664 210.635 569.119 213.643C570.575 216.651 571.331 219.949 571.332 223.291Z" fill="#9CA0A3"/>
<path d="M571.332 223.291C570.734 226.746 569.056 229.922 566.537 232.362C564.019 234.802 560.791 236.379 557.319 236.868C553.847 237.356 550.309 236.729 547.216 235.078C544.123 233.427 541.633 230.837 540.106 227.681C538.579 224.525 538.093 220.965 538.718 217.515C539.343 214.065 541.047 210.902 543.585 208.482C546.123 206.063 549.363 204.511 552.839 204.05C556.315 203.59 559.848 204.245 562.928 205.921C565.547 207.995 567.664 210.635 569.119 213.643C570.575 216.651 571.331 219.949 571.332 223.291Z" fill="#D0D5D9"/>
<path d="M374.542 198.526L373.738 199.898L376.786 203.203L378.219 202.514L380.826 206.363L379.655 207.437L381.592 211.494L383.164 211.257L384.521 215.71L383.084 216.39L383.74 220.844L385.312 221.082L385.298 225.732L383.725 225.959L383.041 230.402L384.474 231.091L383.089 235.53L381.519 235.284L379.555 239.328L380.721 240.409L378.09 244.243L376.662 243.544L373.593 246.831L374.389 248.207L370.744 251.095L369.586 250.007L365.684 252.242L366.039 253.792L361.706 255.477L360.919 254.097L356.533 255.082L356.414 256.668L351.776 257.001L351.432 255.449L346.95 255.099L346.369 256.583L341.84 255.535L341.968 253.951L337.788 252.281L336.797 253.524L332.778 251.185L333.372 249.71L329.865 246.889L328.553 247.78L325.401 244.365L326.398 243.128L323.875 239.406L322.356 239.876L320.352 235.68L321.67 234.789L320.359 230.484H318.769L318.091 225.882L319.612 225.423L319.626 220.927L318.107 220.458L318.815 215.856L320.404 215.865L321.74 211.573L320.426 210.682L322.457 206.5L323.973 206.978L326.516 203.266L325.525 202.024L328.698 198.624L330.006 199.528L333.531 196.736L332.949 195.251L336.984 192.938L337.967 194.186L342.156 192.553L342.037 190.968L346.574 189.948L347.146 191.433L351.629 191.11L351.983 189.56L356.619 189.923L356.728 191.508L361.107 192.522L361.903 191.144L366.226 192.858L365.863 194.405L369.749 196.664L370.915 195.584L374.542 198.526Z" fill="#1A1A1A"/>
<path d="M373.866 223.291C373.866 228.326 372.15 233.212 369.002 237.142C365.853 241.073 361.46 243.814 356.546 244.914C351.632 246.014 346.489 245.407 341.966 243.194C337.443 240.981 333.808 237.293 331.66 232.738C329.513 228.183 328.981 223.032 330.152 218.134C331.323 213.237 334.127 208.884 338.103 205.793C342.079 202.702 346.988 201.057 352.024 201.129C357.059 201.202 361.92 202.987 365.805 206.191C368.326 208.27 370.356 210.882 371.75 213.838C373.144 216.794 373.866 220.022 373.866 223.291Z" fill="#9CA0A3"/>
<path d="M373.866 223.291C373.332 226.918 371.645 230.277 369.053 232.87C366.462 235.464 363.105 237.155 359.479 237.692C355.852 238.23 352.149 237.586 348.917 235.855C345.685 234.125 343.095 231.4 341.532 228.084C339.969 224.768 339.514 221.037 340.236 217.442C340.958 213.848 342.818 210.581 345.54 208.126C348.262 205.67 351.703 204.156 355.352 203.808C359.002 203.459 362.667 204.295 365.805 206.191C368.326 208.271 370.356 210.882 371.75 213.838C373.143 216.795 373.866 220.023 373.866 223.291Z" fill="#D0D5D9"/>
<path d="M606.589 193.08H603.766C602.488 193.08 601.452 194.117 601.452 195.395V204.867C601.452 206.145 602.488 207.181 603.766 207.181H606.589C607.867 207.181 608.903 206.145 608.903 204.867V195.395C608.903 194.117 607.867 193.08 606.589 193.08Z" fill="#DC271C"/>
<path d="M604.437 205.18H595.484C592.176 205.18 589.495 207.861 589.495 211.169V220.123C589.495 223.43 592.176 226.111 595.484 226.111H604.437C607.745 226.111 610.426 223.43 610.426 220.123V211.169C610.426 207.861 607.745 205.18 604.437 205.18Z" fill="#21262A"/>
<path d="M531.132 137.469C530.485 137.469 529.865 137.726 529.408 138.183C528.951 138.641 528.694 139.261 528.694 139.907V153.12L544.342 137.472L531.132 137.469Z" fill="#A0D5FD"/>
<path d="M544.342 137.469L528.694 153.117V165.008L556.233 137.469H544.342Z" fill="white"/>
<path d="M531.132 173.804H536.05L569.507 140.353L568.804 138.868C568.606 138.451 568.295 138.098 567.905 137.851C567.515 137.604 567.062 137.472 566.601 137.473H556.239L528.7 165.011V171.369C528.701 172.014 528.957 172.633 529.413 173.089C529.869 173.545 530.487 173.802 531.132 173.804Z" fill="#A0D5FD"/>
<path d="M569.501 140.353L536.05 173.804H542.333L571.519 144.618L569.501 140.353Z" fill="white"/>
<path d="M583.673 170.33L571.519 144.624L542.339 173.804H581.476C581.886 173.803 582.289 173.698 582.648 173.5C583.006 173.302 583.309 173.016 583.528 172.67C583.747 172.324 583.876 171.928 583.901 171.519C583.926 171.109 583.848 170.701 583.673 170.33Z" fill="#A0D5FD"/>
<path d="M568.854 138.984C568.66 138.935 568.461 138.911 568.26 138.911H532.799C532.152 138.911 531.532 139.168 531.075 139.625C530.618 140.082 530.361 140.702 530.361 141.349V172.809C530.36 173.126 530.422 173.44 530.544 173.733C530.016 173.602 529.546 173.298 529.211 172.869C528.876 172.44 528.694 171.912 528.694 171.368V139.907C528.694 139.261 528.951 138.641 529.408 138.183C529.865 137.726 530.485 137.469 531.132 137.469H566.595C567.056 137.469 567.509 137.601 567.899 137.848C568.289 138.095 568.601 138.448 568.798 138.865L568.854 138.984Z" fill="#466A84"/>
<path d="M499.236 182.675H492.854C489.654 182.675 487.061 185.268 487.061 188.468V203.017C487.061 206.216 489.654 208.81 492.854 208.81H499.236C502.435 208.81 505.029 206.216 505.029 203.017V188.468C505.029 185.268 502.435 182.675 499.236 182.675Z" fill="#76797A"/>
<path d="M503.436 105.317H496.983C494.421 105.317 492.345 107.394 492.345 109.955V118.022C492.345 120.584 494.421 122.66 496.983 122.66H503.436C505.998 122.66 508.074 120.584 508.074 118.022V109.955C508.074 107.394 505.998 105.317 503.436 105.317Z" fill="#76797A"/>
<path d="M440.926 220.89C440.098 220.89 439.277 221.053 438.511 221.371C437.745 221.688 437.05 222.153 436.464 222.739C435.878 223.325 435.413 224.02 435.096 224.786C434.779 225.552 434.615 226.373 434.615 227.201V231.557C434.615 232.386 434.778 233.206 435.096 233.972C435.413 234.738 435.878 235.433 436.464 236.019C437.05 236.605 437.746 237.07 438.511 237.387C439.277 237.704 440.098 237.867 440.926 237.867H443.97V220.89H440.926Z" fill="#A0D5FD"/>
<path d="M447.055 220.89H443.97V237.867H447.055V220.89Z" fill="white"/>
<path d="M461.211 220.89H447.055V237.867H461.211V220.89Z" fill="#A0D5FD"/>
<path d="M465.385 220.89H461.211V237.867H465.385V220.89Z" fill="white"/>
<path d="M465.813 220.89H465.385V237.867H465.813C466.642 237.867 467.462 237.704 468.228 237.387C468.994 237.07 469.689 236.605 470.275 236.019C470.861 235.433 471.326 234.738 471.644 233.972C471.961 233.206 472.124 232.386 472.124 231.557V227.201C472.124 225.527 471.459 223.922 470.275 222.739C469.092 221.555 467.487 220.89 465.813 220.89Z" fill="#A0D5FD"/>
<path d="M549.168 232.326C554.158 232.326 558.203 228.281 558.203 223.291C558.203 218.301 554.158 214.255 549.168 214.255C544.178 214.255 540.133 218.301 540.133 223.291C540.133 228.281 544.178 232.326 549.168 232.326Z" fill="#A3B4C2"/>
<path d="M549.168 227.32C551.393 227.32 553.197 225.516 553.197 223.29C553.197 221.065 551.393 219.261 549.168 219.261C546.943 219.261 545.139 221.065 545.139 223.29C545.139 225.516 546.943 227.32 549.168 227.32Z" fill="#1A1A1A"/>
<path d="M351.701 232.593C356.691 232.593 360.736 228.548 360.736 223.558C360.736 218.568 356.691 214.522 351.701 214.522C346.711 214.522 342.665 218.568 342.665 223.558C342.665 228.548 346.711 232.593 351.701 232.593Z" fill="#A3B4C2"/>
<path d="M351.701 227.32C353.926 227.32 355.73 225.516 355.73 223.29C355.73 221.065 353.926 219.261 351.701 219.261C349.476 219.261 347.672 221.065 347.672 223.29C347.672 225.516 349.476 227.32 351.701 227.32Z" fill="#1A1A1A"/>
<path d="M309.195 227.483H304.215L306.989 218.599H311.968L309.195 227.483Z" fill="#FE4775"/>
<path d="M339.049 234.922L329.83 252.261L332.042 253.437L341.261 236.098L339.049 234.922Z" fill="#DC271C"/>
<path d="M338.32 231.904L329.134 249.26L330.114 249.779L339.3 232.423L338.32 231.904Z" fill="#9C271C"/>
<path d="M331.503 247.851L330.72 247.436L323.499 261.083L324.204 261.457L331.503 247.851Z" fill="#BFBFBF"/>
<path d="M325.653 262.223L332.874 248.577L331.503 247.851L324.204 261.457L325.653 262.223Z" fill="white"/>
<path d="M331.106 244.923L328.011 250.771L332.816 253.314L335.911 247.466L331.106 244.923Z" fill="#DC271C"/>
<path d="M329.999 244.338L326.903 250.186L328.01 250.772L331.105 244.924L329.999 244.338Z" fill="#A9271C"/>
<path d="M211.026 121.713L140.073 149.254L141.723 153.03L212.675 125.489L211.026 121.713Z" fill="#DC271C"/>
<path d="M141.723 153.03L142.453 154.702L213.406 127.162L212.675 125.489L141.723 153.03Z" fill="#9C271C"/>
<path d="M208.928 126.472L209.512 127.807L232.796 117.637L232.271 116.433L208.928 126.472Z" fill="#BFBFBF"/>
<path d="M231.191 113.962L207.907 124.13L208.928 126.472L232.271 116.433L231.191 113.962Z" fill="white"/>
<path d="M212.815 118.18L202.836 122.538L206.416 130.738L216.396 126.38L212.815 118.18Z" fill="#DC271C"/>
<path d="M216.396 126.38L206.416 130.738L207.241 132.626L217.221 128.268L216.396 126.38Z" fill="#A9271C"/>
<path d="M231.315 163.756L189.659 212.792L192.404 214.935L234.061 165.899L231.315 163.756Z" fill="#DC271C"/>
<path d="M192.404 214.935L193.622 215.884L235.277 166.848L234.061 165.898L192.404 214.935Z" fill="#9C271C"/>
<path d="M231.672 168.137L232.642 168.894L245.858 151.962L244.982 151.278L231.672 168.137Z" fill="#BFBFBF"/>
<path d="M243.186 149.876L229.97 166.809L231.673 168.137L244.982 151.278L243.186 149.876Z" fill="white"/>
<path d="M231.219 160.396L225.555 167.653L231.518 172.307L237.182 165.05L231.219 160.396Z" fill="#DC271C"/>
<path d="M237.181 165.05L231.517 172.307L232.89 173.379L238.554 166.121L237.181 165.05Z" fill="#A9271C"/>
<path d="M233.656 143.164L246.345 154.701L249.633 152.51L241.645 134.424L233.656 143.164Z" fill="#BF271C"/>
<path d="M250.931 231.057L69.1754 226.508V235.591H251.332L250.931 231.057Z" fill="#4D4B4B"/>
<path d="M69.1754 235.591V269.416H233.57C238.28 269.416 242.798 267.545 246.129 264.214C249.46 260.884 251.331 256.366 251.332 251.656V235.591H69.1754Z" fill="#818080"/>
<path d="M200.176 177.284L203.84 178.989L266.491 108.284L265.611 107.341L200.176 177.284Z" fill="#BF271C"/>
<path d="M258.666 99.8999L190.786 172.916L200.177 177.284L265.611 107.341L258.666 99.8999Z" fill="#DC271C"/>
<path d="M160.254 174.104L216.039 211.351L217.135 203.484L165.554 171.743L160.254 174.104Z" fill="#1F0E0A"/>
<path d="M188.546 161.498L165.554 171.743L217.135 203.484L220.419 179.9L188.546 161.498Z" fill="#4D0E0A"/>
<path d="M62.1487 160.422V220.807C62.1487 223.528 63.2293 226.137 65.1529 228.06C67.0765 229.984 69.6855 231.065 72.4059 231.065H250.931V228.986L92.3205 132.995L62.1487 160.422Z" fill="#A51D15"/>
<path d="M69.2392 174.505H104.72V197.283H57.5404L69.2392 174.505Z" fill="#4D4949"/>
<path d="M55.0478 205.14H104.72V194.467H61.1644L55.0478 205.14Z" fill="#FDCD00"/>
<path d="M103.473 174.505V206.929H106.401V197.74L111.457 179.9L103.473 174.505Z" fill="#2F2B2B"/>
<path d="M114.388 174.505V206.929H117.315V197.74L122.372 179.9L114.388 174.505Z" fill="#2F2B2B"/>
<path d="M125.263 174.505V206.929H128.19V197.74L133.247 179.9L125.263 174.505Z" fill="#2F2B2B"/>
<path d="M72.4518 102.838L68.0975 154.61L81.1695 162.658V108.481L72.4518 102.838Z" fill="#AAAFB2"/>
<path d="M179.552 172.158L81.1695 108.481V162.658L151.263 205.807L179.552 172.158Z" fill="#D0D5D9"/>
<path d="M344.211 247.554L336.881 262.095L338.792 263.026L346.108 248.508L344.211 247.554Z" fill="#1A1A1A"/>
<path d="M332.48 270.831L334.377 271.787L338.792 263.026L336.882 262.096L332.48 270.831Z" fill="#DC271C"/>
<path d="M109.233 304.094C131.192 304.094 148.993 286.293 148.993 264.335C148.993 242.376 131.192 224.575 109.233 224.575C87.2747 224.575 69.4738 242.376 69.4738 264.335C69.4738 286.293 87.2747 304.094 109.233 304.094Z" fill="#1A1A1A"/>
<path d="M109.233 292.122C124.58 292.122 137.021 279.681 137.021 264.334C137.021 248.988 124.58 236.547 109.233 236.547C93.8866 236.547 81.4457 248.988 81.4457 264.334C81.4457 279.681 93.8866 292.122 109.233 292.122Z" fill="#9CA0A2"/>
<path d="M109.233 288.296C122.467 288.296 133.195 277.568 133.195 264.335C133.195 251.101 122.467 240.373 109.233 240.373C95.9996 240.373 85.2716 251.101 85.2716 264.335C85.2716 277.568 95.9996 288.296 109.233 288.296Z" fill="#D0D5D9"/>
<path d="M109.233 270.095C112.415 270.095 114.994 267.516 114.994 264.334C114.994 261.153 112.415 258.574 109.233 258.574C106.052 258.574 103.473 261.153 103.473 264.334C103.473 267.516 106.052 270.095 109.233 270.095Z" fill="#1A1A1A"/>
<path d="M130.803 239.598L131.192 239.703L142.686 242.843L143.676 241.853L140.348 237.423C140.348 237.423 130.944 234.373 129.25 236.067C130.441 238.947 130.803 239.598 130.803 239.598ZM121.046 233.711L121.447 233.677L133.324 232.696L133.918 231.426L129.277 228.402C129.277 228.402 119.397 228.753 118.384 230.926C120.479 233.226 121.046 233.711 121.046 233.711ZM109.86 231.517L110.226 231.349L121.048 226.365L121.17 224.97L115.774 223.717C115.774 223.717 106.61 227.428 106.401 229.811C109.162 231.256 109.86 231.517 109.86 231.517ZM98.5974 233.278L98.884 232.994L107.346 224.611L106.984 223.257L101.491 223.925C101.491 223.925 94.148 230.543 94.7686 232.858C97.8522 233.278 98.5974 233.278 98.5974 233.278ZM88.6193 238.793L88.7901 238.428L93.8778 227.654L93.0747 226.508L88.1353 229.015C88.1353 229.015 83.4989 237.746 84.8692 239.705C87.9156 239.041 88.6193 238.793 88.6193 238.793ZM81.1265 247.382L81.1636 246.981L82.2592 235.117L81.1116 234.314L77.3273 238.36C77.3273 238.36 75.957 248.158 77.9212 249.525C80.5504 247.858 81.1265 247.382 81.1265 247.382ZM77.023 258.019L76.9206 257.63L73.8934 246.106L72.5395 245.744L70.3675 250.841C70.3675 250.841 72.4281 260.509 74.7426 261.129C76.6444 258.665 77.023 258.019 77.023 258.019ZM76.8062 269.416L76.5761 269.085L69.7899 259.287L68.3944 259.41L68.0975 264.942C68.0975 264.942 73.3411 273.322 75.7284 273.107C76.6697 270.15 76.8062 269.416 76.8062 269.416ZM80.5 280.2L80.1704 279.969L70.4446 273.088L69.1753 273.682L70.7876 278.982C70.7876 278.982 78.5803 285.069 80.7523 284.05C80.6232 280.934 80.5 280.2 80.5 280.2ZM87.6588 289.073L87.2713 288.966L75.7774 285.833L74.7871 286.823L78.1142 291.252C78.1142 291.252 87.5177 294.301 89.2132 292.607C88.027 289.721 87.6588 289.073 87.6588 289.073ZM97.4216 294.959L97.0193 294.992L85.1423 295.973L84.5485 297.242L89.1894 300.267C89.1894 300.267 99.0695 299.916 100.082 297.743C97.9932 295.443 97.4216 294.959 97.4216 294.959ZM108.608 297.152L108.242 297.321L97.4201 302.303L97.2969 303.699L102.693 304.953C102.693 304.953 111.858 301.242 112.066 298.858C109.306 297.413 108.608 297.152 108.608 297.152ZM119.869 295.387L119.584 295.67L111.122 304.055L111.484 305.408L116.977 304.74C116.977 304.74 124.32 298.121 123.701 295.807C120.616 295.394 119.869 295.387 119.869 295.387ZM129.849 289.877L129.676 290.241L124.59 301.015L125.393 302.162L130.333 299.655C130.333 299.655 134.969 290.924 133.599 288.966C130.552 289.628 129.849 289.877 129.849 289.877ZM137.336 281.286L137.298 281.687L136.203 293.55L137.35 294.355L141.135 290.308C141.135 290.308 142.505 280.518 140.541 279.143C137.917 280.812 137.336 281.286 137.336 281.286ZM141.443 270.65L141.546 271.039L144.575 282.562L145.927 282.925L148.099 277.83C148.099 277.83 146.038 268.16 143.724 267.54C141.824 270.007 141.443 270.65 141.443 270.65ZM141.662 259.258L141.89 259.59L148.678 269.388L150.074 269.266L150.37 263.735C150.37 263.735 145.128 255.354 142.741 255.562C141.798 258.516 141.662 259.258 141.662 259.258ZM137.968 248.468L138.296 248.701L148.023 255.581L149.293 254.987L147.68 249.687C147.68 249.687 139.888 243.6 137.716 244.617C137.845 247.732 137.968 248.468 137.968 248.468Z" fill="#4D4D4D"/>
<path d="M219.531 304.612C232.842 304.612 243.633 293.822 243.633 280.511C243.633 267.2 232.842 256.41 219.531 256.41C206.221 256.41 195.43 267.2 195.43 280.511C195.43 293.822 206.221 304.612 219.531 304.612Z" fill="#1A1A1A"/>
<path d="M219.531 297.354C228.833 297.354 236.374 289.813 236.374 280.511C236.374 271.209 228.833 263.668 219.531 263.668C210.229 263.668 202.688 271.209 202.688 280.511C202.688 289.813 210.229 297.354 219.531 297.354Z" fill="#9CA0A2"/>
<path d="M219.531 295.035C227.553 295.035 234.055 288.532 234.055 280.511C234.055 272.489 227.553 265.987 219.531 265.987C211.51 265.987 205.007 272.489 205.007 280.511C205.007 288.532 211.51 295.035 219.531 295.035Z" fill="#D0D5D9"/>
<path d="M219.531 284.003C221.46 284.003 223.023 282.439 223.023 280.511C223.023 278.582 221.46 277.019 219.531 277.019C217.603 277.019 216.039 278.582 216.039 280.511C216.039 282.439 217.603 284.003 219.531 284.003Z" fill="#1A1A1A"/>
<path d="M232.609 265.516L232.845 265.58L239.811 267.483L240.413 266.889L238.395 264.204C238.395 264.204 232.695 262.355 231.668 263.383C232.387 265.123 232.609 265.516 232.609 265.516ZM226.692 261.949L226.935 261.928L234.133 261.334L234.492 260.565L231.671 258.731C231.671 258.731 225.682 258.944 225.069 260.261C226.349 261.655 226.692 261.949 226.692 261.949ZM219.911 260.618L220.133 260.516L226.693 257.496L226.767 256.65L223.501 255.89C223.501 255.89 217.946 258.138 217.82 259.585C219.488 260.46 219.911 260.618 219.911 260.618ZM213.085 261.689L213.259 261.517L218.396 256.438L218.176 255.617L214.843 256.022C214.843 256.022 210.389 260.03 210.768 261.436C212.632 261.684 213.085 261.689 213.085 261.689ZM207.035 265.028L207.141 264.808L210.224 258.276L209.737 257.579L206.743 259.1C206.743 259.1 203.933 264.392 204.765 265.583C206.609 265.179 207.035 265.028 207.035 265.028ZM202.494 270.236L202.516 269.992L203.181 262.802L202.485 262.314L200.191 264.768C200.191 264.768 199.361 270.706 200.551 271.535C202.145 270.524 202.494 270.236 202.494 270.236ZM200.007 276.683L199.945 276.447L198.11 269.462L197.29 269.243L195.973 272.332C195.973 272.332 197.222 278.192 198.625 278.567C199.777 277.074 200.007 276.683 200.007 276.683ZM199.875 283.591L199.737 283.391L195.623 277.452L194.777 277.527L194.596 280.879C194.596 280.879 197.774 285.959 199.222 285.833C199.793 284.037 199.875 283.591 199.875 283.591ZM202.115 290.128L201.916 289.99L196.021 285.82L195.252 286.179L196.229 289.392C196.229 289.392 200.953 293.078 202.27 292.463C202.19 290.575 202.115 290.128 202.115 290.128ZM206.455 295.505L206.219 295.442L199.252 293.538L198.658 294.132L200.669 296.819C200.669 296.819 206.369 298.668 207.396 297.64C206.678 295.899 206.455 295.505 206.455 295.505ZM212.371 299.074L212.128 299.094L204.93 299.688L204.572 300.457L207.393 302.29C207.393 302.29 213.382 302.078 213.995 300.761C212.716 299.368 212.371 299.074 212.371 299.074ZM219.153 300.403L218.93 300.506L212.371 303.527L212.297 304.372L215.563 305.132C215.563 305.132 221.118 302.884 221.245 301.438C219.583 300.562 219.153 300.403 219.153 300.403ZM225.979 299.334L225.805 299.505L220.675 304.588L220.894 305.408L224.227 305.004C224.227 305.004 228.681 300.995 228.302 299.588C226.432 299.343 225.979 299.334 225.979 299.334ZM232.027 295.994L231.923 296.215L228.84 302.747L229.327 303.444L232.321 301.923C232.321 301.923 235.132 296.631 234.299 295.442C232.455 295.842 232.027 295.994 232.027 295.994ZM236.57 290.786L236.547 291.029L235.883 298.221L236.579 298.708L238.873 296.255C238.873 296.255 239.703 290.317 238.514 289.487C236.919 290.499 236.57 290.786 236.57 290.786ZM239.057 284.34L239.118 284.576L240.954 291.553L241.774 291.775L243.091 288.685C243.091 288.685 241.842 282.824 240.439 282.45C239.286 283.949 239.057 284.34 239.057 284.34ZM239.188 277.43L239.327 277.631L243.441 283.569L244.287 283.495L244.467 280.141C244.467 280.141 241.29 275.061 239.842 275.188C239.271 276.986 239.188 277.43 239.188 277.43ZM236.953 270.893L237.152 271.042L243.049 275.212L243.818 274.854L242.841 271.642C242.841 271.642 238.117 267.954 236.8 268.568C236.875 270.448 236.953 270.893 236.953 270.893Z" fill="#4D4D4D"/>
<path d="M145.839 176.75C142.425 181.64 134.942 188.808 132.888 187.372C130.833 185.936 134.982 176.444 138.399 171.553C141.815 166.663 143.494 167.806 145.548 169.24C147.603 170.675 149.256 171.858 145.839 176.75Z" fill="#FF7731"/>
<path d="M144.563 168.548C144.563 168.548 144.324 163.591 145.583 163.768C146.842 163.945 146.818 166.336 146.818 166.336C146.818 166.336 148.806 163.113 149.49 164.96C150.175 166.807 148.819 167.735 148.819 167.735C148.819 167.735 150.304 166.17 151.153 168.063C152.002 169.956 147.232 170.415 147.232 170.415L144.563 168.548Z" fill="#69A21A"/>
<path d="M165.606 188.646C162.191 193.545 154.707 200.704 152.652 199.27C150.598 197.835 154.749 188.341 158.163 183.449C161.578 178.558 163.259 179.702 165.313 181.136C167.368 182.571 169.02 183.755 165.606 188.646Z" fill="#FF7731"/>
<path d="M164.327 180.449C164.327 180.449 164.09 175.491 165.349 175.667C166.608 175.844 166.583 178.236 166.583 178.236C166.583 178.236 168.57 175.012 169.255 176.859C169.939 178.706 168.585 179.634 168.585 179.634C168.585 179.634 170.07 178.069 170.918 179.962C171.765 181.855 166.998 182.314 166.998 182.314L164.327 180.449Z" fill="#69A21A"/>
<path d="M185.37 200.542C181.956 205.441 174.473 212.6 172.417 211.166C170.361 209.732 174.513 200.238 177.929 195.346C181.345 190.454 183.023 191.599 185.079 193.033C187.135 194.467 188.786 195.652 185.37 200.542Z" fill="#FF7731"/>
<path d="M184.101 192.345C184.101 192.345 183.862 187.387 185.121 187.563C186.38 187.74 186.356 190.132 186.356 190.132C186.356 190.132 188.343 186.909 189.028 188.757C189.714 190.605 188.359 191.53 188.359 191.53C188.359 191.53 189.843 189.966 190.693 191.858C191.542 193.751 186.772 194.21 186.772 194.21L184.101 192.345Z" fill="#69A21A"/>
<path d="M205.135 212.438C201.72 217.33 194.238 224.496 192.183 223.062C190.128 221.628 194.279 212.134 197.694 207.242C201.109 202.35 202.789 203.495 204.844 204.931C206.899 206.366 208.551 207.548 205.135 212.438Z" fill="#FF7731"/>
<path d="M203.858 204.242C203.858 204.242 203.619 199.283 204.88 199.46C206.14 199.636 206.113 202.028 206.113 202.028C206.113 202.028 208.101 198.807 208.786 200.653C209.47 202.5 208.115 203.428 208.115 203.428C208.115 203.428 209.599 201.862 210.448 203.755C211.298 205.648 206.528 206.106 206.528 206.106L203.858 204.242Z" fill="#69A21A"/>
<path d="M224.901 224.336C221.487 229.226 214.003 236.394 211.948 234.958C209.893 233.523 214.044 224.03 217.459 219.14C220.873 214.249 222.554 215.391 224.609 216.827C226.663 218.262 228.316 219.444 224.901 224.336Z" fill="#FF7731"/>
<path d="M223.623 216.138C223.623 216.138 223.385 211.179 224.644 211.356C225.903 211.533 225.878 213.924 225.878 213.924C225.878 213.924 227.866 210.703 228.55 212.55C229.235 214.397 227.881 215.324 227.881 215.324C227.881 215.324 229.365 213.758 230.213 215.651C231.061 217.544 226.294 218.004 226.294 218.004L223.623 216.138Z" fill="#69A21A"/>
<path d="M244.673 236.233C241.259 241.123 233.776 248.291 231.722 246.855C229.667 245.419 233.816 235.927 237.232 231.036C240.649 226.146 242.328 227.289 244.382 228.723C246.437 230.158 248.088 231.348 244.673 236.233Z" fill="#FF7731"/>
<path d="M243.389 228.034C243.389 228.034 243.15 223.076 244.409 223.254C245.668 223.432 245.644 225.822 245.644 225.822C245.644 225.822 247.631 222.599 248.317 224.446C249.002 226.293 247.645 227.221 247.645 227.221C247.645 227.221 249.13 225.656 249.979 227.549C250.828 229.442 246.058 229.9 246.058 229.9L243.389 228.034Z" fill="#69A21A"/>
<path d="M264.432 248.124C261.018 253.016 253.534 260.182 251.479 258.747C249.424 257.311 253.581 247.827 256.996 242.928C260.41 238.029 262.091 239.181 264.146 240.615C266.2 242.049 267.847 243.237 264.432 248.124Z" fill="#FF7731"/>
<path d="M263.154 239.932C263.154 239.932 262.916 234.973 264.175 235.15C265.434 235.326 265.409 237.718 265.409 237.718C265.409 237.718 267.397 234.495 268.081 236.342C268.766 238.189 267.412 239.117 267.412 239.117C267.412 239.117 268.896 237.552 269.744 239.445C270.592 241.338 265.823 241.796 265.823 241.796L263.154 239.932Z" fill="#69A21A"/>
<path d="M284.197 260.025C280.782 264.924 273.298 272.083 271.243 270.649C269.189 269.214 273.34 259.72 276.756 254.828C280.172 249.937 281.85 251.081 283.906 252.515C285.962 253.95 287.613 255.134 284.197 260.025Z" fill="#FF7731"/>
<path d="M282.92 251.835C282.92 251.835 282.681 246.877 283.94 247.053C285.199 247.23 285.174 249.622 285.174 249.622C285.174 249.622 287.162 246.398 287.846 248.247C288.53 250.095 287.176 251.02 287.176 251.02C287.176 251.02 288.661 249.455 289.51 251.348C290.359 253.241 285.589 253.7 285.589 253.7L282.92 251.835Z" fill="#69A21A"/>
<path d="M303.961 271.921C300.547 276.813 293.064 283.979 291.01 282.545C288.955 281.111 293.106 271.616 296.521 266.725C299.935 261.833 301.616 262.977 303.67 264.413C305.725 265.849 307.378 267.03 303.961 271.921Z" fill="#FF7731"/>
<path d="M302.685 263.724C302.685 263.724 302.446 258.766 303.706 258.942C304.967 259.119 304.94 261.511 304.94 261.511C304.94 261.511 306.928 258.288 307.612 260.136C308.297 261.984 306.941 262.909 306.941 262.909C306.941 262.909 308.426 261.345 309.275 263.237C310.124 265.13 305.354 265.589 305.354 265.589L302.685 263.724Z" fill="#69A21A"/>
<path d="M323.728 283.818C320.313 288.709 312.829 295.876 310.774 294.441C308.72 293.005 312.871 283.513 316.285 278.622C319.7 273.732 321.38 274.874 323.435 276.309C325.49 277.745 327.142 278.927 323.728 283.818Z" fill="#FF7731"/>
<path d="M322.449 275.62C322.449 275.62 322.212 270.662 323.471 270.838C324.73 271.015 324.705 273.407 324.705 273.407C324.705 273.407 326.692 270.185 327.377 272.032C328.061 273.879 326.707 274.807 326.707 274.807C326.707 274.807 328.192 273.241 329.04 275.133C329.887 277.026 325.12 277.487 325.12 277.487L322.449 275.62Z" fill="#69A21A"/>
<path d="M106.772 148.662L104.607 153.302L331.771 293.568L338.982 292.14L106.772 148.662Z" fill="#1A1A1A"/>
<path d="M116.999 132.579L114.836 137.22L366.835 292.821L376.338 291.965L116.999 132.579Z" fill="#1A1A1A"/>
<path d="M104.607 130.92V153.302L110.375 151.97L108.991 132.995L104.607 130.92Z" fill="#1A1A1A"/>
<path d="M77.3824 99.9907V166.797L53.2692 219.406V89.8152L77.3824 99.9907Z" fill="#2F2B2B"/>
<path d="M53.2692 81.8068H40.6188V246.645H53.2692V81.8068Z" fill="#818080"/>
<path d="M46.9447 94.2581H35.0856V96.6305H46.9447V94.2581Z" fill="#2F2B2B"/>
<path d="M46.9447 145.252H35.0856V148.514H46.9447V145.252Z" fill="#2F2B2B"/>
<path d="M47.5371 196.147H35.678V199.704H47.5371V196.147Z" fill="#2F2B2B"/>
<path d="M17 240.717V250.033L26.7331 240.717H17Z" fill="#FDCD00"/>
<path d="M26.7331 240.717L17 250.033V260.479L35.1405 240.717H26.7331Z" fill="#DC271C"/>
<path d="M35.1836 240.717H35.1405L17 260.479V264.139H24.3726L35.1836 252.002V240.717Z" fill="#FDCD00"/>
<path d="M35.1836 252.002L24.3726 264.139H35.1836V252.002Z" fill="#DC271C"/>
<path d="M59.5432 240.717H35.1836V264.139H59.5432V240.717Z" fill="#D4D4D4"/>
<path d="M91.6688 121.859L108.694 98.2089C109.309 97.3578 110.217 96.7651 111.243 96.5456C112.27 96.3262 113.341 96.4957 114.25 97.0213C115.066 97.493 115.703 98.2237 116.057 99.0976C116.412 99.9715 116.465 100.939 116.208 101.846L112.957 113.31C112.672 114.315 112.768 115.39 113.227 116.329L120.292 130.775C120.629 131.464 120.773 132.231 120.708 132.995C120.643 133.759 120.372 134.491 119.924 135.114L117.571 138.38C116.948 139.246 116.02 139.845 114.974 140.057C113.928 140.269 112.841 140.078 111.929 139.523L92.9025 127.962C92.4024 127.659 91.9707 127.255 91.6345 126.776C91.2982 126.297 91.0648 125.754 90.9489 125.181C90.833 124.607 90.8371 124.016 90.961 123.444C91.0849 122.873 91.3259 122.333 91.6688 121.859Z" fill="#DC271C"/>
<path d="M358.975 225.182L355.278 223.318L341.883 249.893L345.58 251.757L358.975 225.182Z" fill="#DC271C"/>
<path d="M559.832 291.965H49.7328C50.8686 303.925 55.5422 314.464 62.7975 323.531H533.283C544.432 313.12 553.159 302.066 559.832 291.965Z" fill="#69A21A"/>
<path d="M260.594 294.355C260.594 294.355 254.675 291.056 256.941 290.432C259.206 289.809 262.348 290.591 262.348 290.591C262.348 290.591 262.158 285.875 264.248 287.082C266.338 288.289 266.399 290.176 266.399 290.176C266.399 290.176 267.841 287.254 268.675 288.86L269.509 290.467L274.916 290.432C274.916 290.432 274.401 285.603 276.962 287.082C279.523 288.56 279.738 290.029 279.738 290.029L282.901 288.137V290.591C282.901 290.591 286.256 288.128 286.256 289.883C286.256 291.638 286.492 291.962 286.492 291.962L260.594 294.355ZM304.782 294.355C304.782 294.355 302.026 290.591 305.697 290.591C309.368 290.591 311.132 292.175 311.836 291.472C312.54 290.768 317.347 288.366 317.961 289.736C318.576 291.107 322.616 291.801 323.18 291.475C323.744 291.148 328.03 288.177 329.7 289.849C331.37 291.521 336.138 291.589 336.881 290.845C337.625 290.101 339.73 286.725 340.498 288.915C341.809 288.157 344.497 287.928 344.497 290.121C345.982 287.708 348.772 288.323 348.772 290.591C348.772 287.215 352.946 286.61 352.946 289.626C354.305 288.841 355.841 290.539 355.841 291.014C355.841 291.49 359.404 291.163 359.404 292.202C359.404 293.241 357.92 293.568 357.92 293.568L304.782 294.355ZM374.726 293.568C374.726 293.568 379.221 285.609 382.398 288.786C385.102 284.914 389.195 283.562 389.925 288.044C394.455 284.262 401.13 284.248 401.13 289.407C406.752 286.16 412.561 294.361 412.561 294.361L374.726 293.568Z" fill="#69A21A"/>
<path d="M407.605 292.166C407.605 292.166 422.245 283.486 432.399 290.256C441.888 285.232 444.02 286.396 447.418 289.793C455.37 283.216 460.06 289.513 461.671 289.513C468.5 281.976 470.605 289.481 470.605 289.481C470.605 289.481 483.689 279.789 487.129 285.117C497.043 280.457 503.48 286.672 503.48 289.793C503.48 292.913 523.288 276.66 528.185 287.692C537.146 280.291 549.711 287.306 549.711 289.176C549.711 291.047 564.647 284.277 564.647 284.277L559.837 291.96L450.886 304.539L407.605 292.166ZM52.0147 294.959L49.7328 291.965C49.7328 291.965 50.0624 283.308 54.4257 285.827C58.789 288.347 58.7905 290.162 58.7905 290.162C58.7905 290.162 61.5504 283.927 64.0713 286.451C66.5921 288.974 66.5951 290.162 66.5951 290.162C66.5951 290.162 68.6973 287.405 70.3705 289.078C72.0436 290.752 74.7902 290.753 74.7902 290.753C74.7902 290.753 77.222 284.674 80.2952 286.448C83.3683 288.222 83.0358 290.159 83.0358 290.159C83.9596 289.61 85.0341 289.367 86.1045 289.467C87.9335 289.616 89.2222 291.158 89.2222 291.158L95.6787 287.431C97.0773 286.623 95.2081 291.158 95.2081 291.158L97.3059 291.962L52.0147 294.959ZM115.696 292.122C115.696 292.122 128.279 287.475 134.372 289.798C140.465 292.122 148.328 290.162 148.328 290.162C148.328 290.162 163.708 286.506 164.148 288.669C164.587 290.832 170.505 290.162 170.505 290.162C170.505 290.162 169.509 280.441 173.474 284.411C177.44 288.381 176.09 290.591 176.09 290.591C176.09 290.591 178.146 283.634 179.077 286.749C180.008 289.864 179.077 292.821 179.077 292.821L119.413 293.563L115.696 292.122Z" fill="#69A21A"/>
<path d="M59.2715 318.701C59.2715 318.701 74.7442 317.542 81.4472 321.412C90.0476 319.988 94.9305 318.168 101.044 319.185C107.158 320.202 115 318.535 115 318.535L122.377 320.309C122.377 320.309 162.068 319.837 163.64 321.409C165.212 322.981 179.557 323.527 179.557 323.527H62.7915L59.2715 318.701Z" fill="#4F7A14"/>
<path d="M489.377 352.468C470.626 360.621 448.315 365.829 421.913 365.829C420.725 366.298 419.544 366.758 418.369 367.208C359.997 389.547 316.14 388.06 282.518 380.133C262.515 375.417 246.136 368.42 232.477 362.808C223.436 359.114 213.484 358.259 203.946 360.358C172.564 367.187 135.06 364.313 104.874 352.468H489.377Z" fill="#92C64B"/>
<path d="M533.283 323.53H62.7915C72.7696 336.012 87.6306 345.702 104.873 352.467H489.377C507.012 344.798 521.499 334.528 533.283 323.53Z" fill="#BBD745"/>
<path d="M590.246 307.17C598.114 303.234 605.594 298.396 611.903 292.235C611.485 291.911 611.108 291.537 610.781 291.122C591.353 308.904 565.379 316.793 539.576 321.013L539.992 322.637C557.354 319.746 574.441 314.91 590.246 307.17Z" fill="#69A21A"/>
<path d="M539.992 322.637C538.164 322.934 530.657 323.872 528.488 324.173C528.382 323.637 528.28 323.098 528.177 322.561C532.054 322.058 537.428 321.364 539.578 321.013L539.992 322.637ZM577.345 316.862C568.344 312.504 562.647 323.817 571.503 328.456C580.502 332.817 586.2 321.505 577.345 316.862ZM559.92 323.012C552.072 316.816 546.238 323.951 553.938 330.326C561.787 336.522 567.62 329.387 559.92 323.012Z" fill="#69A21A"/>
<path d="M547.143 325.25C539.295 319.053 533.459 326.188 541.16 332.562C549.008 338.758 554.842 331.625 547.143 325.25ZM601.992 316.482C601.033 313.216 597.779 310.955 594.621 309.949C590.595 308.523 586.098 310.525 588.421 315.223C589.744 317.861 592.765 319.934 595.668 320.622C598.692 321.491 603.149 320.391 601.992 316.482ZM616.705 306.848C617.447 302.166 612.986 298.488 608.59 298.263C602.285 297.767 601.4 303.574 605.224 307.426C607.968 310.171 615.363 311.712 616.705 306.848ZM611.904 292.235C615.431 295.111 620.921 292.548 621.935 288.356C623.313 283.736 618.942 279.809 614.462 280.596C608.6 281.28 607.583 288.929 611.904 292.235ZM599.984 296.671C607.275 295.794 605.486 280.821 598.193 281.687C590.901 282.552 592.691 297.537 599.984 296.671ZM579.668 297.666C579.031 300.065 579.457 303.102 580.878 305.148C582.556 307.852 586.049 308.394 587.756 305.424C589.766 301.992 589.241 296.867 586.159 294.224C583.395 291.943 580.249 294.741 579.668 297.666ZM564.182 308.284C563.924 312.616 567.432 316.023 571.092 312.545C574.193 309.694 576.221 302.063 571.889 299.593C569.839 298.65 567.286 300.436 566.063 302.366C564.95 303.966 564.198 306.333 564.182 308.284ZM552.503 318.535C555.242 317.135 556.997 313.933 557.535 310.952C558.404 307.002 555.975 302.724 551.667 305.353C549.208 306.858 547.486 310.046 547.152 312.913C546.555 316.396 548.782 320.425 552.503 318.535ZM540.658 320.029C543.398 318.627 545.152 315.426 545.691 312.445C546.558 308.496 544.129 304.216 539.821 306.845C537.364 308.352 535.642 311.539 535.308 314.405C534.711 317.889 536.936 321.91 540.658 320.029Z" fill="#69A21A"/>
<path d="M597.604 342.311C606.525 342.716 615.56 342.134 624.208 339.799C623.997 339.305 623.847 338.786 623.763 338.255C597.106 344.542 569.502 338.237 544.039 328.828C544.103 329.43 544.108 330.038 544.052 330.642C561.286 336.941 579.284 341.316 597.604 342.311Z" fill="#69A21A"/>
<path d="M526.713 323.113C527.029 322.675 527.347 322.238 527.668 321.802C533.391 324.279 542.422 328.231 544.04 328.829C544.104 329.432 544.108 330.039 544.052 330.642C542.833 330.197 530.514 324.744 526.713 323.113ZM581.361 344.514C575.538 336.191 564.881 343.399 570.435 351.902C576.257 360.224 586.915 353.017 581.361 344.514ZM562.865 341.331C558.977 331.948 550.267 335.384 553.937 344.851C557.825 354.234 566.538 350.799 562.865 341.331Z" fill="#69A21A"/>
<path d="M603.406 356.386C604.17 353.021 602.408 349.398 600.104 346.944C597.241 343.678 592.262 343.233 591.995 348.548C591.86 351.542 593.512 354.878 595.744 356.927C597.999 359.192 602.494 360.426 603.406 356.386ZM621.224 355.135C624.207 351.352 622.07 345.88 618.283 343.501C612.938 339.938 609.276 344.649 610.757 349.958C611.831 353.751 617.624 358.783 621.224 355.135ZM624.208 339.799C625.911 344.095 632.05 344.55 635.025 341.329C638.536 337.915 636.606 332.273 632.243 330.744C626.707 328.441 622.015 334.726 624.208 339.799ZM611.44 337.826C618.341 340.66 624.172 326.498 617.278 323.652C610.383 320.806 604.544 334.974 611.44 337.826ZM592.935 328.642C591.18 330.453 590.053 333.357 590.299 335.875C590.448 339.104 593.276 341.315 596.262 339.529C599.745 337.481 601.814 332.674 600.393 328.805C599.075 325.413 594.894 326.338 592.935 328.642Z" fill="#64AC00"/>
<path d="M573.942 330.382C571.567 334.094 572.987 338.856 577.958 337.585C582.115 336.594 587.7 330.832 585.084 326.495C583.733 324.643 580.592 324.966 578.552 326.068C576.761 326.936 574.922 328.661 573.942 330.382ZM558.506 333.687C561.624 333.801 564.775 331.828 566.727 329.456C569.453 326.384 569.42 321.387 564.296 321.587C561.37 321.705 558.264 323.678 556.547 326.054C554.293 328.843 554.274 333.512 558.506 333.687ZM492.1 351.652C491.492 352.032 490.883 352.412 490.272 352.791C470.285 346.299 449.396 342.948 428.66 346.664C428.602 346.099 428.475 345.544 428.282 345.01C437.544 343.04 447.117 342.945 456.513 343.885C468.614 345.205 480.509 347.921 492.1 351.652ZM473.782 342.489C479.452 351.611 491.117 344.612 485.741 335.318C480.073 326.198 468.405 333.193 473.782 342.489ZM502.755 343.707C502.859 344.024 502.951 344.336 503.029 344.639C500.258 346.468 497.469 348.269 494.664 350.041C494.019 349.069 493.502 348.017 493.127 346.912C489.797 336.707 499.189 333.579 502.755 343.707ZM451.191 328.69C450.19 332.199 451.843 336.126 454.133 338.849C456.969 342.454 462.201 343.218 462.787 337.621C463.101 334.468 461.549 330.851 459.31 328.565C457.061 326.038 452.385 324.478 451.191 328.69Z" fill="#69A21A"/>
<path d="M432.307 328.991C428.943 332.811 430.883 338.712 434.744 341.439C440.184 345.51 444.32 340.746 443.058 335.055C442.144 330.989 436.317 325.344 432.307 328.991ZM428.277 345.01C426.726 340.376 420.271 339.549 416.944 342.772C413.042 346.175 414.756 352.249 419.275 354.107C424.988 356.849 430.301 350.491 428.277 345.01ZM441.643 347.825C434.517 344.437 427.55 359.054 434.666 362.454C441.782 365.854 448.759 351.226 441.643 347.825ZM460.652 358.579C462.609 356.766 463.965 353.764 463.85 351.092C463.879 347.678 461.019 345.179 457.763 346.894C453.969 348.855 451.509 353.81 452.785 357.978C453.985 361.639 458.449 360.902 460.652 358.579ZM480.805 357.837C483.526 354.051 482.298 348.945 476.979 350.002C472.525 350.81 466.306 356.572 468.821 361.3C470.141 363.334 473.477 363.174 475.701 362.127C477.629 361.311 479.67 359.595 480.805 357.837Z" fill="#69A21A"/>
<path d="M506.215 340.448L469.189 222.17C469.157 222.063 469.104 221.963 469.033 221.876C468.962 221.789 468.875 221.717 468.776 221.664C468.677 221.612 468.568 221.579 468.457 221.569C468.345 221.558 468.232 221.57 468.125 221.603C468.018 221.637 467.919 221.691 467.833 221.763C467.747 221.836 467.677 221.924 467.625 222.024C467.574 222.123 467.543 222.232 467.534 222.344C467.525 222.456 467.539 222.568 467.574 222.675L504.601 340.953C504.668 341.167 504.818 341.345 505.016 341.449C505.215 341.553 505.447 341.574 505.661 341.507C505.875 341.44 506.053 341.291 506.157 341.092C506.261 340.894 506.282 340.662 506.215 340.448ZM494.475 310.655C494.475 310.655 477.584 324.534 462.505 305.245C471.713 292.176 494.475 310.655 494.475 310.655Z" fill="#4F7A14"/>
<path d="M491.69 297.439C491.69 297.439 472.495 307.904 461.304 286.127C472.8 275.016 491.69 297.439 491.69 297.439ZM483.36 275.719C483.36 275.719 464.356 281.212 460.891 261.95C473.591 254.76 483.36 275.719 483.36 275.719ZM477.472 255.535C477.472 255.535 458.469 261.028 455.003 241.767C467.703 234.577 477.472 255.535 477.472 255.535Z" fill="#4F7A14"/>
<path d="M472.117 237.145C472.117 237.145 453.114 242.638 449.648 223.378C462.342 216.188 472.117 237.145 472.117 237.145ZM496.963 310.387C496.963 310.387 518.677 312.922 520.922 288.541C506.114 282.531 496.963 310.387 496.963 310.387Z" fill="#4F7A14"/>
<path d="M492.555 296.052C492.555 296.052 514.358 294.468 511.989 270.099C496.316 266.978 492.555 296.052 492.555 296.052ZM485.008 275.154C485.008 275.154 503.956 269.493 496.454 251.42C481.884 252.245 485.008 275.154 485.008 275.154ZM478.055 254.681C478.055 254.681 497.002 249.02 489.501 230.947C474.937 231.772 478.055 254.681 478.055 254.681Z" fill="#4F7A14"/>
<path d="M473.047 236.174C473.047 236.174 491.994 230.514 484.494 212.44C469.924 213.265 473.047 236.174 473.047 236.174Z" fill="#4F7A14"/>
<path d="M468.341 225.316C468.341 225.316 455.772 216.53 457.336 205.829L458.904 195.123C458.904 195.123 481.704 213.193 468.341 225.316Z" fill="#4F7A14"/>
<path d="M489.917 354.041C489.917 354.041 477.88 340.877 481.738 326.733C495.275 327.787 503.473 345.869 503.473 345.869C503.473 345.869 496.515 354.041 489.917 354.041Z" fill="#588A16"/>
<path d="M497.337 351.514L497.174 351.297L496.963 351C496.648 350.54 496.221 349.862 495.707 349.009C494.686 347.305 493.339 344.913 491.777 342.314C490.216 339.714 488.721 337.401 487.612 335.74C486.503 334.079 485.781 333.068 485.781 333.068C485.781 333.068 486.243 334.221 487.095 336.037C487.947 337.853 489.19 340.316 490.76 342.931C492.094 345.176 493.585 347.323 495.223 349.357C495.724 349.975 496.257 350.566 496.821 351.127L497.092 351.383C497.172 351.456 497.241 351.514 497.3 351.563L497.472 351.711L497.337 351.514Z" fill="#D3EE4F"/>
<path d="M506.802 349.358C490.849 345.316 477.054 337.815 465.326 328.829C447.735 315.35 434.804 298.522 426.281 285.066C422.827 279.626 419.65 274.016 416.764 268.255C415.725 266.155 414.937 264.477 414.42 263.326C414.16 262.75 413.975 262.306 413.839 262.007C413.776 261.858 413.727 261.744 413.691 261.668C413.676 261.629 413.664 261.601 413.655 261.582L413.645 261.555C413.577 261.389 413.445 261.256 413.279 261.186C413.113 261.117 412.927 261.116 412.76 261.184C412.594 261.252 412.461 261.384 412.391 261.55C412.322 261.716 412.321 261.902 412.389 262.069C412.405 262.104 419.772 280.134 435.202 300.224C442.922 310.268 452.65 320.829 464.496 329.905C476.342 338.982 490.303 346.578 506.463 350.672C506.634 350.708 506.813 350.676 506.961 350.584C507.11 350.491 507.216 350.345 507.259 350.175C507.303 350.006 507.279 349.826 507.192 349.674C507.106 349.522 506.965 349.409 506.797 349.358H506.802Z" fill="#CEED35"/>
<path d="M416.421 269.085C416.421 269.085 406.112 266.824 409.452 247.024C417.086 251.432 423.677 261.83 416.421 269.085ZM424.567 281.192C424.567 281.192 416.751 274.105 429.508 258.589C433.929 266.211 434.47 278.511 424.567 281.192Z" fill="#CEED35"/>
<path d="M423.945 282.528C423.945 282.528 417.15 290.603 401.174 278.438C408.627 273.731 420.897 272.733 423.945 282.528Z" fill="#CEED35"/>
<path d="M430.715 293.393C430.715 293.393 425.887 302.777 407.606 294.472C413.823 288.223 425.563 284.521 430.715 293.393ZM431.119 293.014C431.119 293.014 425.188 284.283 441.228 272.204C443.74 280.653 441.373 292.735 431.119 293.014Z" fill="#CEED35"/>
<path d="M438.065 302.572C438.065 302.572 432.136 293.841 448.176 281.762C450.688 290.211 448.321 302.293 438.065 302.572ZM446.74 312.977C446.74 312.977 440.811 304.247 456.85 292.167C459.362 300.617 456.996 312.705 446.74 312.977Z" fill="#CEED35"/>
<path d="M457.766 322.435C457.766 322.435 450.128 315.153 463.259 299.961C467.496 307.69 467.733 319.999 457.766 322.435ZM468.236 331.034C468.236 331.034 460.597 323.751 473.729 308.559C477.965 316.287 478.204 328.59 468.236 331.034ZM437.408 303.304C437.408 303.304 434.857 313.548 415.159 309.651C419.779 302.143 430.36 295.849 437.408 303.304ZM446.697 313.967C446.697 313.967 444.146 324.211 424.449 320.312C429.063 312.806 439.65 306.511 446.697 313.967ZM456.307 322.903C456.307 322.903 456.378 333.456 436.33 334.57C438.943 326.153 447.629 317.429 456.307 322.903ZM467.391 332.115C467.391 332.115 467.462 342.668 447.413 343.784C450.026 335.365 458.713 326.641 467.391 332.115Z" fill="#CEED35"/>
<path d="M527.416 323.53C527.416 323.53 536.917 289.022 562.668 297.325C553.79 309.796 538.188 318.754 538.188 318.754L527.416 323.53Z" fill="#588A16"/>
<path d="M555.919 299.125C555.545 299.152 555.092 299.217 554.559 299.273L553.718 299.435C553.57 299.466 553.421 299.493 553.258 299.53L552.78 299.658C551.244 300.065 549.759 300.65 548.357 301.399C546.641 302.319 545.032 303.426 543.558 304.698C542.097 305.968 540.75 307.365 539.534 308.871C538.546 310.093 537.635 311.376 536.807 312.712C536.103 313.852 535.593 314.807 535.262 315.476C534.931 316.146 534.773 316.528 534.773 316.528C534.773 316.528 535.722 315.175 537.408 313.144C539.578 310.514 541.957 308.065 544.523 305.819C545.927 304.603 547.416 303.488 548.977 302.48C550.258 301.658 551.608 300.949 553.012 300.359L553.457 300.17C553.606 300.114 553.744 300.066 553.883 300.022L554.669 299.737C555.167 299.588 555.598 299.44 555.956 299.352L557.077 299.077C557.077 299.077 556.668 299.088 555.919 299.125Z" fill="#D3EE4F"/>
<path d="M538.182 318.755C538.182 318.755 530.432 328.099 522.102 334.789C521.77 335.056 521.436 335.319 521.102 335.577C517.403 338.429 513.649 340.668 510.455 341.257C510.455 341.257 502.818 270.212 544.906 263.209C530 278.113 538.182 318.755 538.182 318.755Z" fill="#85B51D"/>
<path d="M527.415 283.817C522.665 300.148 522.665 332.922 522.665 332.922L522.109 334.782C521.777 335.05 521.443 335.312 521.109 335.571C520.994 326.081 521.04 291.642 527.415 283.817Z" fill="#CEED35"/>
<path d="M492.555 351.042C492.555 351.042 479.872 381.591 506.254 400C504.138 366.893 515.542 339.286 515.542 339.286C515.542 339.286 494.555 337.808 492.555 351.042Z" fill="#85B51D"/>
<path d="M503.481 341.545C503.481 341.545 492.198 365.914 501.179 384.875C498.987 373.695 500.734 343.953 506.055 339.936C503.92 339.936 503.481 341.545 503.481 341.545Z" fill="#CEED35"/>
<path d="M531.798 325.803C531.798 325.803 550.899 322.834 557.074 333.433C560.618 321.449 544.431 314.841 537.91 317.268C531.247 319.841 531.335 322.338 531.798 325.803Z" fill="#588A16"/>
<path d="M556.037 329.184C556.016 329.09 555.99 328.996 555.959 328.905C555.923 328.796 555.886 328.667 555.828 328.529C555.511 327.731 555.049 326.999 554.465 326.369C553.597 325.432 552.582 324.643 551.46 324.032C550.109 323.285 548.677 322.694 547.192 322.273C545.725 321.853 544.227 321.548 542.713 321.36C541.481 321.206 540.242 321.115 539.001 321.088C537.862 321.054 536.722 321.09 535.587 321.194C535.587 321.194 536.874 321.415 538.92 321.825C540.966 322.234 543.771 322.825 546.769 323.694C548.172 324.09 549.549 324.575 550.89 325.147C551.979 325.606 553.007 326.197 553.95 326.908C554.591 327.396 555.153 327.979 555.616 328.638C555.702 328.755 555.764 328.866 555.825 328.961C555.879 329.04 555.929 329.122 555.974 329.206C556.048 329.343 556.088 329.414 556.088 329.414L556.037 329.184Z" fill="#D3EE4F"/>
<path d="M576.714 157.841C576.714 161.701 575.096 164.84 573.097 164.84C571.099 164.84 570.544 161.707 570.544 157.841C570.544 153.975 571.1 150.843 573.097 150.843C575.094 150.843 576.714 153.977 576.714 157.841Z" fill="#231F20"/>
<path d="M128.628 354.185C128.628 354.185 128.409 352.509 132.922 350.804C137.435 349.1 144.047 350.678 144.047 353.82C144.047 356.961 128.628 354.185 128.628 354.185ZM182.272 354.185C182.272 354.185 182.051 352.509 186.564 350.804C191.077 349.1 197.69 350.678 197.69 353.82C197.69 356.961 182.272 354.185 182.272 354.185ZM235.914 354.185C235.914 354.185 235.693 352.509 240.206 350.804C244.719 349.1 251.332 350.678 251.332 353.82C251.332 356.961 235.914 354.185 235.914 354.185ZM285.537 354.185C285.537 354.185 285.316 352.509 289.829 350.804C294.343 349.1 300.955 350.678 300.955 353.82C300.955 356.961 285.537 354.185 285.537 354.185ZM357.425 354.185C357.425 354.185 357.204 352.509 361.717 350.804C366.231 349.1 372.843 350.678 372.843 353.82C372.843 356.961 357.425 354.185 357.425 354.185ZM128.628 325.489C128.628 325.489 128.409 323.812 132.922 322.108C137.435 320.404 144.047 321.98 144.047 325.123C144.047 328.266 128.628 325.489 128.628 325.489ZM182.272 325.489C182.272 325.489 182.051 323.812 186.564 322.108C191.077 320.404 197.69 321.98 197.69 325.123C197.69 328.266 182.272 325.489 182.272 325.489ZM235.914 325.489C235.914 325.489 235.693 323.812 240.206 322.108C244.719 320.404 251.332 321.98 251.332 325.123C251.332 328.266 235.914 325.489 235.914 325.489ZM285.537 325.489C285.537 325.489 285.316 323.812 289.829 322.108C294.343 320.404 300.955 321.98 300.955 325.123C300.955 328.266 285.537 325.489 285.537 325.489ZM357.425 325.489C357.425 325.489 357.204 323.812 361.717 322.108C366.231 320.404 372.843 321.98 372.843 325.123C372.843 328.266 357.425 325.489 357.425 325.489Z" fill="#FF7731"/>
<path d="M361.798 352.467C361.798 352.467 354.906 343.895 358.352 341.906C361.798 339.916 364.862 345.448 364.862 345.448C364.862 345.448 360.936 335.587 365.436 335.587C369.936 335.587 374.721 337.119 373.094 341.14C371.467 345.16 371.37 345.64 371.37 345.64C371.37 345.64 374.913 340.47 376.923 343.533C378.933 346.596 371.37 352.053 371.37 352.053L361.798 352.467Z" fill="#69A21A"/>
<path d="M359.606 324.016C359.606 324.016 352.713 315.444 356.161 313.455C359.608 311.465 362.669 316.997 362.669 316.997C362.669 316.997 358.745 307.138 363.244 307.138C367.742 307.138 372.53 308.668 370.903 312.689C369.276 316.709 369.179 317.188 369.179 317.188C369.179 317.188 372.721 312.019 374.732 315.082C376.742 318.145 369.179 323.602 369.179 323.602L359.606 324.016Z" fill="#CEED35"/>
<path d="M128.628 294.67C128.628 294.67 128.409 292.993 132.922 291.289C137.435 289.585 144.047 291.161 144.047 294.304C144.047 297.447 128.628 294.67 128.628 294.67ZM182.272 294.67C182.272 294.67 182.051 292.993 186.564 291.289C191.077 289.585 197.69 291.161 197.69 294.304C197.69 297.447 182.272 294.67 182.272 294.67ZM235.914 294.67C235.914 294.67 235.693 292.993 240.206 291.289C244.719 289.585 251.332 291.161 251.332 294.304C251.332 297.447 235.914 294.67 235.914 294.67ZM285.537 294.67C285.537 294.67 285.316 292.993 289.829 291.289C294.343 289.585 300.955 291.161 300.955 294.304C300.955 297.447 285.537 294.67 285.537 294.67ZM357.425 294.67C357.425 294.67 357.204 292.993 361.717 291.289C366.231 289.585 372.843 291.161 372.843 294.304C372.843 297.447 357.425 294.67 357.425 294.67Z" fill="#FF7731"/>
<path d="M131.259 352.468C131.259 352.468 123.368 342.653 127.314 340.375C131.261 338.098 134.767 344.43 134.767 344.43C134.767 344.43 130.273 333.147 135.425 333.147C140.576 333.147 146.056 334.9 144.193 339.504C142.33 344.108 142.22 344.656 142.22 344.656C142.22 344.656 146.276 338.736 148.577 342.245C150.878 345.753 142.22 351.999 142.22 351.999L131.259 352.468ZM183.656 352.468C183.656 352.468 175.763 342.653 179.709 340.375C183.656 338.098 187.162 344.43 187.162 344.43C187.162 344.43 182.67 333.147 187.82 333.147C192.97 333.147 198.453 334.9 196.59 339.504C194.726 344.108 194.617 344.656 194.617 344.656C194.617 344.656 198.671 338.736 200.974 342.245C203.276 345.753 194.617 351.999 194.617 351.999L183.656 352.468ZM236.043 352.468C236.043 352.468 228.151 342.653 232.097 340.375C236.043 338.098 239.55 344.43 239.55 344.43C239.55 344.43 235.056 333.147 240.208 333.147C245.359 333.147 250.839 334.9 248.976 339.504C247.113 344.108 247.003 344.656 247.003 344.656C247.003 344.656 251.059 338.736 253.36 342.245C255.661 345.753 247.003 351.999 247.003 351.999L236.043 352.468ZM288.434 352.468C288.434 352.468 280.543 342.653 284.489 340.375C288.435 338.098 291.942 344.43 291.942 344.43C291.942 344.43 287.448 333.147 292.6 333.147C297.751 333.147 303.231 334.9 301.368 339.504C299.505 344.108 299.395 344.656 299.395 344.656C299.395 344.656 303.451 338.736 305.752 342.245C308.053 345.753 299.395 351.999 299.395 351.999L288.434 352.468Z" fill="#69A21A"/>
<path d="M131.618 322.983C131.618 322.983 124.174 313.725 127.896 311.576C131.618 309.428 134.927 315.402 134.927 315.402C134.927 315.402 130.687 304.753 135.547 304.753C140.406 304.753 145.577 306.407 143.819 310.75C142.061 315.092 141.957 315.609 141.957 315.609C141.957 315.609 145.783 310.025 147.953 313.334C150.124 316.643 141.957 322.539 141.957 322.539L131.618 322.983ZM183.656 323.531C183.656 323.531 175.763 313.717 179.709 311.438C183.656 309.16 187.162 315.494 187.162 315.494C187.162 315.494 182.67 304.211 187.82 304.211C192.97 304.211 198.453 305.965 196.59 310.568C194.726 315.172 194.616 315.719 194.616 315.719C194.616 315.719 198.671 309.801 200.974 313.308C203.276 316.814 194.616 323.063 194.616 323.063L183.656 323.531ZM236.043 323.531C236.043 323.531 228.151 313.717 232.097 311.438C236.043 309.16 239.55 315.494 239.55 315.494C239.55 315.494 235.056 304.211 240.208 304.211C245.359 304.211 250.839 305.965 248.976 310.568C247.112 315.172 247.003 315.719 247.003 315.719C247.003 315.719 251.059 309.801 253.36 313.308C255.661 316.814 247.003 323.063 247.003 323.063L236.043 323.531ZM288.434 323.531C288.434 323.531 280.543 313.717 284.489 311.438C288.435 309.16 291.942 315.494 291.942 315.494C291.942 315.494 287.448 304.211 292.6 304.211C297.751 304.211 303.231 305.965 301.368 310.568C299.505 315.172 299.395 315.719 299.395 315.719C299.395 315.719 303.451 309.801 305.752 313.308C308.053 316.814 299.395 323.063 299.395 323.063L288.434 323.531Z" fill="#CEED35"/>
<path d="M132.084 291.857C132.084 291.857 125.223 283.321 128.654 281.341C132.084 279.361 135.135 284.867 135.135 284.867C135.135 284.867 131.226 275.049 135.707 275.049C140.188 275.049 144.952 276.575 143.332 280.578C141.712 284.58 141.616 285.058 141.616 285.058C141.616 285.058 145.143 279.911 147.144 282.961C149.146 286.01 141.616 291.444 141.616 291.444L132.084 291.857ZM185.407 293.117C185.407 293.117 178.299 284.276 181.853 282.224C185.407 280.173 188.567 285.876 188.567 285.876C188.567 285.876 184.52 275.707 189.161 275.707C193.801 275.707 198.738 277.287 197.06 281.433C195.383 285.58 195.279 286.074 195.279 286.074C195.279 286.074 198.931 280.743 201.005 283.902C203.079 287.061 195.279 292.689 195.279 292.689L185.407 293.117ZM238.846 292.532C238.846 292.532 231.977 283.988 235.412 282.005C238.848 280.021 241.9 285.535 241.9 285.535C241.9 285.535 237.988 275.707 242.473 275.707C246.958 275.707 251.728 277.235 250.106 281.242C248.483 285.249 248.388 285.727 248.388 285.727C248.388 285.727 251.918 280.573 253.922 283.627C255.927 286.681 248.388 292.119 248.388 292.119L238.846 292.532ZM291.722 291.475C291.722 291.475 284.326 284.594 287.12 282.977C289.914 281.36 292.405 285.854 292.405 285.854C292.405 285.854 289.218 277.848 292.871 277.848C296.525 277.848 300.412 279.092 299.09 282.356C297.769 285.621 297.69 286.009 297.69 286.009C297.69 286.009 300.566 281.812 302.199 284.3C303.832 286.788 297.69 291.217 297.69 291.217L291.722 291.475ZM360.007 293.117C360.007 293.117 353.116 284.545 356.561 282.555C360.007 280.566 363.071 286.096 363.071 286.096C363.071 286.096 359.146 276.237 363.646 276.237C368.146 276.237 372.931 277.769 371.304 281.789C369.676 285.81 369.582 286.288 369.582 286.288C369.582 286.288 373.122 281.118 375.132 284.183C377.143 287.247 369.582 292.703 369.582 292.703L360.007 293.117Z" fill="#69A21A"/>
<path d="M135.725 341.518C135.49 339.327 135.039 336.836 136.051 335.01C136.525 334.389 136.439 334.073 135.554 334.386C131.859 336.944 133.985 344.156 135.161 347.328C138.036 353.489 135.985 343.649 135.725 341.518ZM188.017 344.718C187.869 342.535 187.971 339.173 188.046 337.336C188.08 336.095 188.046 335.284 187.767 335.21C186.282 336.123 185.908 340.12 185.891 342.131C185.975 344.293 186.257 348.131 188.451 348.832C188.736 348.269 187.936 345.908 188.017 344.718ZM240.26 341.87C239.854 340.573 239.615 339.23 239.547 337.874C239.643 335.053 238.69 335.822 238.108 337.7C237.091 340.688 239.289 346.801 242.182 347.72C242.47 346.268 240.709 343.882 240.26 341.87ZM292.775 340.246C292.258 338.929 292.86 332.842 291.026 336.848C289.954 339.223 290.924 342.65 293.152 344.038C296.907 346.346 293.012 341.646 292.775 340.246ZM286.269 345.301C285.23 339.529 283.3 340.457 284.267 345.733C284.593 347.111 285.52 349.559 287.105 349.347C287.347 348.267 286.437 346.815 286.269 345.301ZM368.143 349.923C365.952 347.558 365.269 342.979 365.12 340.124C364.985 338.712 364.811 337.804 364.526 337.784C363.208 339.202 363.302 343.643 363.9 345.922C364.424 347.927 365.618 349.877 367.166 350.98C368.078 351.529 368.792 352.083 369.58 351.722C369.694 351.453 368.971 350.94 368.143 349.923ZM362.043 348.293C359.878 344.946 358.331 346.309 360.365 349.47C362.648 352.461 364.455 351.464 362.043 348.293Z" fill="#CDEC35"/>
<path d="M363.645 314.151C363.827 312.483 363.707 310.524 363.235 308.935C361.718 308.518 361.75 311.633 361.677 312.663C361.381 315.089 363.539 319.088 363.645 314.151ZM359.593 320.457C359.571 319.875 357.114 314.816 356.361 315.935C354.734 317.408 360.184 324.602 359.593 320.457ZM285.937 315.228C285.503 313.912 286.07 308.855 284.241 312.188C283.259 314.266 283.935 317.512 286.014 318.686C286.568 318.983 287.248 319.258 287.588 318.851C287.43 317.826 286.116 316.676 285.937 315.228ZM294.277 315.08C293.565 312.881 293.667 310.219 294.032 308.041C294.227 306.84 294.392 306.046 294.13 305.911C291.782 307.099 291.357 311.884 292.03 314.382C292.496 316.201 294.098 319.03 296.023 318.747C296.054 318.132 294.448 316.268 294.277 315.08Z" fill="#D6FC8E"/>
<path d="M292.044 285.752C292.435 287.045 294.055 288.678 293.74 286.002C293.603 284.487 293.603 282.963 293.74 281.448C293.718 280.705 294.521 277.971 293.232 278.787C291.449 280.459 291.228 283.544 292.044 285.752ZM292.528 290.234C292.738 288.991 290.656 287.682 290.321 286.489C289.613 284.568 288.464 286.476 288.873 287.716C289.1 289.117 291.229 291.062 292.528 290.234ZM361.729 285.833C363.901 290.042 363.302 279.481 362.184 279.152C361.532 279.109 361.107 280.741 361.055 281.511C360.891 282.818 361.245 284.84 361.729 285.833ZM356.707 288.553C357.322 289.775 359.048 291.542 360.343 290.762C360.343 289.796 358.969 288.808 358.543 287.644C357.88 286.605 357.921 284.911 357.16 284.322C355.752 284.88 356.11 287.318 356.707 288.553ZM241.664 289.601C240.225 288.728 237.46 287.587 236.897 285.593C236.748 284.87 236.484 283.006 236.091 283.076C234.985 283.685 234.888 287.175 236.137 288.21C237.63 290.888 246.39 292.366 241.664 289.601ZM241.369 286.902C244.071 292.279 242.219 278.363 241.072 278.337C239.45 279.936 240.476 284.931 241.369 286.902ZM183.371 289.033C184.113 289.604 185.529 290.204 186.071 289.393C185.854 288.541 184.448 287.827 184.101 286.721C183.562 285.815 183.688 283.777 182.827 283.378C181.176 284.32 181.77 287.995 183.371 289.033ZM190.026 286.385C189.208 284.733 188.657 282.727 188.645 280.864C188.522 279.901 189.02 277.812 188.574 277.402C187.795 277.254 186.819 279.659 186.761 280.754C185.698 285.388 192.118 291.314 190.026 286.385ZM131.794 286.898C131.378 286.225 130.805 285.919 130.429 285.265C129.635 284.565 129.711 281.173 128.686 282.18C127.202 283.952 128.398 286.981 130.423 287.901C130.823 288.176 131.28 289.337 131.863 288.967C132.016 288.641 132.089 288.284 132.076 287.924C132.064 287.564 131.967 287.213 131.794 286.898ZM133.486 283.309C133.821 284.785 134.377 289.239 136.417 288.617C136.107 287.52 135.914 286.394 135.842 285.257C135.594 283.327 135.116 280.643 134.849 278.939C134.672 277.899 134.516 277.219 134.228 277.184C132.925 278.043 133.234 281.607 133.486 283.309Z" fill="#CDEC35"/>
<path d="M129.445 317.826C128.538 316.341 129.172 313.159 128.177 312.196C126.458 313.204 126.584 317.146 127.804 318.759C128.398 319.62 129.758 320.79 130.613 320.106C130.681 319.579 129.656 318.584 129.445 317.826ZM134.341 317.285C136.685 320.96 135.653 316.501 135.324 314.933C135.132 312.992 134.641 310.49 134.766 308.593C134.766 307.902 135.116 307.246 134.865 306.783C131.67 307.619 132.916 315.119 134.341 317.285ZM186.12 316.893C186.816 316.252 185.92 314.954 185.918 314.059C185.191 311.794 179.089 309.16 182.777 313.401C183.901 314.151 184.955 316.874 186.12 316.893Z" fill="#D6FC8E"/>
<path d="M186.399 316.119C189.174 323.369 188.34 315.83 187.856 313.195C187.487 311.571 187.53 308.353 186.502 307.417C184.953 309.109 185.779 313.851 186.399 316.119ZM236.434 316.642C235.953 315.426 236.089 313.829 235.356 313.143C233.992 313.558 234.106 315.751 234.465 317.2C234.937 318.606 235.801 320.417 236.989 320.423C237.615 319.576 236.677 317.859 236.434 316.642ZM240.488 316.917C241.661 318.658 242.881 319.265 241.824 316.338C241.231 314.212 241.28 311.501 241.195 309.246C240.983 307.801 241.315 306.155 240.717 305.089C238.561 306.321 238.909 314.988 240.488 316.917Z" fill="#D6FC8E"/>
<path d="M259.448 113.93H280.981L300.107 99.8999H258.676L259.448 113.93Z" fill="#DC271C"/>
<path d="M182.874 175.874L179.779 174.087L170.586 190.011L173.68 191.797L182.874 175.874Z" fill="#DC271C"/>
<path d="M205.513 190.184L202.419 188.398L193.225 204.321L196.32 206.108L205.513 190.184Z" fill="#DC271C"/>
<path d="M240.906 211.144L237.811 209.358L228.617 225.281L231.712 227.068L240.906 211.144Z" fill="#DC271C"/>
<path d="M263.544 225.455L260.449 223.668L251.255 239.592L254.35 241.378L263.544 225.455Z" fill="#DC271C"/>
<path d="M280.359 237.056L277.265 235.269L268.071 251.192L271.166 252.979L280.359 237.056Z" fill="#DC271C"/>
<path d="M304.658 252.713L301.549 250.926L292.356 266.923L295.465 268.71L304.658 252.713Z" fill="#DC271C"/>
<path d="M323.327 263.216L320.232 261.43L311.039 277.353L314.134 279.14L323.327 263.216Z" fill="#DC271C"/>
<path d="M167.657 243.778H159.612C157.755 243.778 156.25 245.284 156.25 247.141V268.998C156.25 270.855 157.755 272.36 159.612 272.36H167.657C169.514 272.36 171.02 270.855 171.02 268.998V247.141C171.02 245.284 169.514 243.778 167.657 243.778Z" fill="#4D4D4D"/>
<path d="M184.88 243.778H176.835C174.978 243.778 173.473 245.284 173.473 247.141V268.998C173.473 270.855 174.978 272.36 176.835 272.36H184.88C186.737 272.36 188.243 270.855 188.243 268.998V247.141C188.243 245.284 186.737 243.778 184.88 243.778Z" fill="#4D4D4D"/>
<path d="M62.1487 216.684H136.109C136.535 216.684 136.944 216.515 137.245 216.214C137.546 215.913 137.716 215.504 137.716 215.078C137.716 214.652 137.546 214.243 137.245 213.942C136.944 213.641 136.535 213.472 136.109 213.472H62.1487V216.684Z" fill="#FDCD00"/>
<path d="M138.042 118.174C137.966 117.688 137.804 117.218 137.566 116.787C137.12 115.955 136.428 115.168 135.576 114.388C134.083 113.027 132.074 111.695 129.886 110.435C126.603 108.548 122.921 106.839 120.053 105.595C117.185 104.351 115.133 103.577 115.124 103.574C115.023 103.534 114.915 103.514 114.807 103.515C114.698 103.517 114.59 103.54 114.491 103.584C114.391 103.628 114.301 103.691 114.226 103.77C114.152 103.849 114.093 103.942 114.055 104.044C114.017 104.145 113.999 104.254 114.003 104.362C114.007 104.471 114.033 104.578 114.079 104.677C114.125 104.775 114.19 104.864 114.271 104.937C114.351 105.01 114.446 105.066 114.548 105.102H114.562C114.873 105.219 120.249 107.27 125.615 109.986C128.297 111.343 130.977 112.87 132.998 114.379C133.891 115.021 134.711 115.759 135.444 116.58C135.709 116.884 135.94 117.215 136.135 117.568C136.278 117.826 136.376 118.106 136.424 118.397C136.437 118.484 136.443 118.572 136.443 118.66C136.445 118.845 136.413 119.029 136.351 119.203C136.218 119.546 135.996 119.849 135.71 120.08C135.422 120.319 135.105 120.518 134.766 120.674C134.09 120.985 133.378 121.206 132.646 121.333C131.725 121.498 130.79 121.578 129.855 121.572C126.976 121.572 123.471 120.903 119.97 119.36C116.144 117.68 112.757 115.14 110.074 111.937C108.261 109.77 106.389 108.292 104.521 107.363C102.822 106.504 100.945 106.056 99.0414 106.055C97.3735 106.07 95.7217 106.383 94.1644 106.98C92.2371 107.726 90.4348 108.761 88.8198 110.05C88.0854 110.618 87.3937 111.239 86.7502 111.907C86.6034 112.067 86.5258 112.278 86.5345 112.494C86.5433 112.711 86.6377 112.915 86.797 113.062C86.9563 113.209 87.1673 113.286 87.3838 113.277C87.6003 113.269 87.8044 113.174 87.9513 113.015C88.9468 111.999 90.0499 111.094 91.2412 110.316C92.3462 109.579 93.5311 108.969 94.7731 108.499C96.1386 107.978 97.5858 107.704 99.0473 107.69C100.698 107.69 102.326 108.08 103.798 108.827C105.431 109.643 107.133 110.962 108.826 112.984C111.671 116.378 115.261 119.071 119.315 120.852C123.027 122.485 126.738 123.202 129.856 123.204C130.908 123.21 131.958 123.118 132.993 122.928C133.668 122.803 134.33 122.615 134.969 122.367C135.86 122.009 136.62 121.538 137.18 120.916C137.459 120.611 137.682 120.259 137.84 119.877C137.998 119.489 138.079 119.074 138.078 118.655C138.077 118.494 138.065 118.333 138.042 118.174Z" fill="black"/>
<path d="M233.656 121.713C236.427 121.713 238.674 119.284 238.674 116.287C238.674 113.29 236.427 110.861 233.656 110.861C230.885 110.861 228.638 113.29 228.638 116.287C228.638 119.284 230.885 121.713 233.656 121.713Z" fill="#DC271C"/>
<path d="M235.824 128.47L229.382 119.129L237.584 112.914L246.857 116.286L235.824 128.47Z" fill="#DC271C"/>
<path d="M233.597 117.546C234.586 117.546 235.389 116.744 235.389 115.754C235.389 114.764 234.586 113.962 233.597 113.962C232.607 113.962 231.805 114.764 231.805 115.754C231.805 116.744 232.607 117.546 233.597 117.546Z" fill="#4D0E0A"/>
<path d="M354.584 236.354L334.716 226.339L332.286 231.16L352.155 241.175L354.584 236.354Z" fill="#DC271C"/>
<path d="M307.251 249.736L332.315 231.146L334.743 226.325L300.122 245.123C298.643 247.41 304.436 252.021 307.251 249.736Z" fill="#DC271C"/>
<path d="M259.98 115.631H279.393L280.981 113.929H259.448L259.98 115.631Z" fill="#BF271C"/>
<path d="M303.921 114.08C300.148 117.469 292.566 121.948 291.142 120.367C289.718 118.786 294.993 111.726 298.767 108.341C302.541 104.957 303.711 106.224 305.133 107.81C306.555 109.396 307.695 110.692 303.921 114.08Z" fill="#FF7731"/>
<path d="M304.45 107.047C304.45 107.047 305.213 102.89 306.221 103.285C307.229 103.68 306.747 105.651 306.747 105.651C306.747 105.651 309.015 103.368 309.226 105.029C309.437 106.69 308.133 107.197 308.133 107.197C308.133 107.197 309.667 106.189 310.002 107.92C310.338 109.651 306.301 109.107 306.301 109.107L304.45 107.047Z" fill="#69A21A"/>
<path d="M251.354 56.2416C251.354 57.6342 215.398 66.7646 213.4 81.9255C192.078 84.004 182.264 99.8997 182.264 99.8997C182.264 99.8997 183.719 79.8084 201.539 71.6223C201.539 55.0094 215.444 42.6871 224.264 36.5408C233.577 41.106 242.708 47.5908 251.354 56.2416Z" fill="#D9EEFE"/>
<path d="M442.153 49.1527C454.989 49.1527 465.394 41.2835 465.394 31.5764C465.394 21.8692 454.989 14 442.153 14C429.317 14 418.911 21.8692 418.911 31.5764C418.911 41.2835 429.317 49.1527 442.153 49.1527Z" fill="#E1F1FD"/>
<path d="M481.776 63.0132C482.724 61.728 483.244 60.1762 483.26 58.5787C483.26 53.3721 477.619 49.1514 470.668 49.1514C463.717 49.1514 458.075 53.3721 458.075 58.5787C458.076 59.3971 458.216 60.2094 458.489 60.9808C455.915 62.7074 454.294 65.2134 454.294 68.0045C454.294 73.2096 459.935 77.4303 466.886 77.4303C467.538 77.4306 468.19 77.3929 468.837 77.3175C471.064 79.9527 475 81.7046 479.479 81.7046C486.433 81.7046 492.071 77.4853 492.071 72.2787C492.067 67.6616 487.631 63.8223 481.776 63.0132Z" fill="#E1F1FD"/>
<path d="M439.032 83.998C442.69 83.998 445.656 81.0322 445.656 77.3736C445.656 73.7151 442.69 70.7493 439.032 70.7493C435.373 70.7493 432.408 73.7151 432.408 77.3736C432.408 81.0322 435.373 83.998 439.032 83.998Z" fill="#E1F1FD"/>
<path d="M218.727 385.442C230.596 385.442 240.218 381.751 240.218 377.198C240.218 372.645 230.596 368.954 218.727 368.954C206.857 368.954 197.235 372.645 197.235 377.198C197.235 381.751 206.857 385.442 218.727 385.442Z" fill="#92C64B"/>
<path d="M153.674 216.684H152.796C152.475 216.684 152.166 216.808 151.932 217.028C151.699 217.249 151.559 217.551 151.54 217.872H150.549C150.53 217.551 150.39 217.249 150.156 217.028C149.922 216.808 149.613 216.684 149.291 216.684H148.414C148.248 216.684 148.084 216.717 147.931 216.78C147.778 216.844 147.64 216.936 147.522 217.053C147.405 217.17 147.313 217.309 147.249 217.462C147.186 217.615 147.153 217.779 147.153 217.945V223.315C147.153 223.48 147.186 223.644 147.249 223.797C147.313 223.95 147.405 224.089 147.522 224.206C147.64 224.323 147.778 224.416 147.931 224.479C148.084 224.542 148.248 224.575 148.414 224.575H149.291C149.625 224.575 149.946 224.442 150.182 224.206C150.419 223.969 150.552 223.649 150.552 223.315V223.034H151.537V223.309C151.537 223.643 151.67 223.963 151.907 224.2C152.143 224.436 152.464 224.569 152.798 224.569H153.675C154.01 224.569 154.33 224.436 154.567 224.2C154.803 223.963 154.936 223.643 154.936 223.309V217.939C154.934 217.605 154.8 217.286 154.564 217.051C154.327 216.816 154.007 216.684 153.674 216.684ZM162.39 216.684H161.514C161.294 216.685 161.077 216.742 160.886 216.852C160.72 216.743 160.525 216.684 160.326 216.684H158.969C158.923 216.685 158.877 216.688 158.831 216.695C158.782 216.688 158.732 216.685 158.683 216.684H157.807C157.473 216.684 157.152 216.817 156.916 217.053C156.679 217.29 156.546 217.61 156.546 217.945V223.315C156.546 223.649 156.679 223.969 156.916 224.206C157.152 224.442 157.473 224.575 157.807 224.575H158.683C159.017 224.575 159.338 224.442 159.574 224.206C159.81 223.969 159.943 223.649 159.943 223.315V221.846H160.26V223.309C160.26 223.643 160.392 223.963 160.629 224.2C160.865 224.436 161.186 224.569 161.52 224.569H162.396C162.73 224.569 163.051 224.436 163.287 224.2C163.524 223.963 163.656 223.643 163.656 223.309V217.939C163.656 217.773 163.622 217.609 163.558 217.457C163.494 217.304 163.401 217.166 163.283 217.049C163.165 216.933 163.026 216.84 162.873 216.778C162.72 216.715 162.555 216.683 162.39 216.684Z" fill="#CC1D15"/>
<path d="M169.711 216.684H168.833C168.137 216.684 167.573 217.249 167.573 217.945V223.314C167.573 224.011 168.137 224.575 168.833 224.575H169.711C170.407 224.575 170.971 224.011 170.971 223.314V217.945C170.971 217.249 170.407 216.684 169.711 216.684Z" fill="#CC1D15"/>
<path d="M418.373 367.208C360.001 389.547 316.144 388.059 282.522 380.133C287.202 375.546 295.141 371.475 308.096 373.804C333.707 378.406 331.725 382.682 347.676 375.777C363.627 368.872 377.649 366.118 386.974 371.503C396.299 376.888 403.566 355.72 415.164 364.598C416.345 365.507 417.411 366.378 418.373 367.208Z" fill="#4F7A14"/>
<path d="M187.338 73.594C187.338 73.594 174.883 87.0342 174.883 102.841C167.32 113.713 165.554 124.45 165.554 124.45C165.554 124.45 163.575 112.375 171.02 99.9014C165.554 83.7874 187.338 73.594 187.338 73.594Z" fill="#D9EEFE"/>
<path d="M552.704 89.1416C557.438 84.4071 553.617 72.9099 544.169 63.4618C534.721 54.0137 523.224 50.1926 518.489 54.9271C513.755 59.6616 517.576 71.1588 527.024 80.6069C536.472 90.055 547.969 93.8761 552.704 89.1416Z" fill="#A0D5FD"/>
<path d="M178.816 379.723C184.087 379.723 188.36 377.312 188.36 374.338C188.36 371.365 184.087 368.954 178.816 368.954C173.544 368.954 169.271 371.365 169.271 374.338C169.271 377.312 173.544 379.723 178.816 379.723Z" fill="#92C64B"/>
<path d="M34.3106 301.224C34.3106 301.224 40.0887 328.645 46.2781 322.454C52.4675 316.263 40.3248 275.647 37.164 286.725C34.0033 297.804 31.815 291.755 34.3106 301.224Z" fill="#69A21A"/>
<path d="M154.728 76.0196L152.914 78.8077C149.582 76.6451 145.695 75.4941 141.723 75.4941C137.75 75.4941 133.863 76.6451 130.532 78.8077L128.725 76.0196C132.596 73.5052 137.114 72.167 141.73 72.167C146.346 72.167 150.864 73.5052 154.735 76.0196H154.728Z" fill="white"/>
<path d="M151.104 81.5974L149.294 84.39C147.04 82.9269 144.41 82.1483 141.723 82.1483C139.035 82.1483 136.405 82.9269 134.151 84.39C133.557 83.474 132.951 82.5402 132.343 81.5989C135.136 79.7864 138.394 78.8219 141.723 78.8219C145.053 78.8219 148.311 79.7864 151.104 81.5989V81.5974ZM147.486 87.1811C146.85 88.1624 146.243 89.1007 145.678 89.9721C144.5 89.2091 143.126 88.8031 141.723 88.8031C140.319 88.8031 138.946 89.2091 137.768 89.9721C137.203 89.0977 136.596 88.1609 135.959 87.1781C137.675 86.0647 139.677 85.4722 141.723 85.4722C143.768 85.4722 145.77 86.0647 147.486 87.1781V87.1811ZM145.682 96.0902C145.683 96.9716 145.39 97.8281 144.85 98.5245C144.31 99.2208 143.553 99.7173 142.699 99.9353C141.845 100.153 140.943 100.081 140.135 99.7286C139.327 99.3765 138.659 98.7652 138.237 97.9913C137.816 97.2173 137.664 96.325 137.806 95.4551C137.948 94.5853 138.376 93.7877 139.023 93.1884C139.669 92.589 140.496 92.2221 141.374 92.1457C142.252 92.0692 143.131 92.2876 143.871 92.7662C144.426 93.125 144.883 93.6171 145.199 94.1978C145.516 94.7784 145.682 95.429 145.682 96.0902ZM533.686 106.101C533.295 106.707 532.892 107.324 532.487 107.946C530.282 106.515 527.71 105.754 525.081 105.754C522.452 105.754 519.88 106.515 517.675 107.946C517.27 107.324 516.867 106.707 516.475 106.101C519.037 104.437 522.026 103.552 525.081 103.552C528.135 103.552 531.125 104.437 533.686 106.101Z" fill="white"/>
<path d="M531.289 109.793L530.091 111.64C528.599 110.672 526.859 110.157 525.081 110.157C523.303 110.157 521.563 110.672 520.071 111.64C519.679 111.035 519.277 110.417 518.875 109.795C520.722 108.595 522.878 107.956 525.082 107.956C527.285 107.956 529.441 108.595 531.289 109.795V109.793ZM528.894 113.489L527.698 115.335C526.918 114.83 526.01 114.561 525.081 114.561C524.152 114.561 523.243 114.83 522.464 115.335L521.268 113.487C522.403 112.751 523.728 112.359 525.081 112.359C526.434 112.359 527.759 112.751 528.894 113.487V113.489ZM527.701 119.384C527.701 119.967 527.507 120.533 527.149 120.994C526.792 121.454 526.291 121.782 525.726 121.926C525.161 122.07 524.565 122.022 524.031 121.789C523.496 121.556 523.055 121.151 522.776 120.639C522.497 120.127 522.397 119.537 522.491 118.962C522.585 118.387 522.869 117.859 523.296 117.463C523.723 117.067 524.271 116.824 524.851 116.773C525.432 116.723 526.013 116.867 526.502 117.184C526.87 117.421 527.172 117.747 527.381 118.131C527.591 118.516 527.7 118.946 527.701 119.384Z" fill="white"/>
<path d="M573.629 160.27L582.15 165.541C582.15 165.541 583.409 163.535 582.78 162.906C582.15 162.276 575.394 157.078 575.394 157.078L573.629 160.27Z" fill="#231F20"/>
</g>
<defs>
<filter id="filter0_d_333_2771" x="0.1" y="0.1" width="661.642" height="427.8" filterUnits="userSpaceOnUse" color-interpolation-filters="sRGB">
<feFlood flood-opacity="0" result="BackgroundImageFix"/>
<feColorMatrix in="SourceAlpha" type="matrix" values="0 0 0 0 0 0 0 0 0 0 0 0 0 0 0 0 0 0 127 0" result="hardAlpha"/>
<feOffset dx="4" dy="7"/>
<feGaussianBlur stdDeviation="10.45"/>
<feComposite in2="hardAlpha" operator="out"/>
<feColorMatrix type="matrix" values="0 0 0 0 0 0 0 0 0 0 0 0 0 0 0 0 0 0 0.25 0"/>
<feBlend mode="normal" in2="BackgroundImageFix" result="effect1_dropShadow_333_2771"/>
<feBlend mode="normal" in="SourceGraphic" in2="effect1_dropShadow_333_2771" result="shape"/>
</filter>
</defs>
</svg>
